<svg width="78" height="26" viewBox="0 0 78 26" fill="none" xmlns="http://www.w3.org/2000/svg">
<g clip-path="url(#clip0_1872_9643)">
<path d="M32.8751 24.8926C32.7874 24.8008 32.7395 24.6804 32.7411 24.5559V12.0372C32.7386 11.9738 32.7491 11.9106 32.7721 11.8511C32.7951 11.7916 32.8301 11.7371 32.8751 11.6906C32.9143 11.6483 32.9624 11.6144 33.0162 11.5911C33.07 11.5679 33.1284 11.5558 33.1874 11.5556H38.6352C40.1356 11.5556 41.2522 11.8863 41.9848 12.5475C42.7175 13.2088 43.0837 14.1493 43.0835 15.369C43.0835 16.0113 42.9317 16.5538 42.628 16.9965C42.3243 17.4392 41.982 17.7633 41.6011 17.9688C42.0902 18.2137 42.501 18.6054 42.8334 19.1438C43.1658 19.6822 43.3325 20.2856 43.3333 20.954C43.3333 22.238 42.9404 23.2395 42.1546 23.9586C41.3687 24.6776 40.2495 25.0371 38.7969 25.0371H33.1874C33.1275 25.0366 33.0684 25.0233 33.0144 24.9984C32.9604 24.9734 32.9128 24.9373 32.8751 24.8926ZM38.2779 16.9086C38.7539 16.9086 39.117 16.777 39.3673 16.5137C39.6177 16.2504 39.7427 15.9006 39.7425 15.4642C39.7425 15.0405 39.6174 14.7002 39.3673 14.4432C39.1172 14.1862 38.7541 14.0579 38.2779 14.0581H35.9561V16.9086H38.2779ZM38.4374 22.5322C38.9266 22.5322 39.3076 22.3781 39.5804 22.0699C39.8533 21.7618 39.9903 21.3894 39.9913 20.9528C39.9913 20.4905 39.8544 20.1086 39.5804 19.8069C39.3065 19.5052 38.9265 19.3548 38.4403 19.3556H35.9577V22.5334L38.4374 22.5322Z" fill="#3068EF"/>
<path d="M46.0433 24.6374C45.5151 24.3861 45.071 24.0063 44.759 23.5389C44.4509 23.0762 44.2906 22.5425 44.2965 21.9992C44.2965 21.0969 44.6522 20.3711 45.3634 19.8219C46.0746 19.2727 47.0534 18.8935 48.2998 18.6844L50.6607 18.3103V18.0359C50.6607 17.5389 50.5595 17.1727 50.3572 16.9374C50.1548 16.7021 49.8149 16.5844 49.3376 16.5844C49.0475 16.5844 48.8083 16.6364 48.6198 16.7403C48.4071 16.8625 48.2105 17.0073 48.0343 17.1719C47.8578 17.3288 47.7257 17.4334 47.638 17.4856C47.6002 17.5903 47.5307 17.6415 47.4302 17.6415H45.3728C45.3139 17.6429 45.2554 17.6322 45.2015 17.6102C45.1476 17.5882 45.0997 17.5554 45.0612 17.5142C45.0212 17.4735 44.9912 17.4252 44.9732 17.3727C44.9553 17.3203 44.9499 17.2648 44.9573 17.2102C44.9699 16.8569 45.1367 16.4645 45.4578 16.0332C45.7789 15.6018 46.2699 15.2291 46.9307 14.915C47.5918 14.6014 48.4069 14.4445 49.376 14.4445C50.9246 14.4445 52.0702 14.8008 52.8129 15.5134C53.5556 16.226 53.9266 17.1838 53.926 18.387V24.3499C53.9277 24.4752 53.8808 24.5969 53.7938 24.6929C53.7531 24.7399 53.7013 24.7777 53.6424 24.8032C53.5834 24.8287 53.5189 24.8413 53.4538 24.8401H51.2614C51.198 24.8395 51.1355 24.826 51.0784 24.8006C51.0213 24.7751 50.9709 24.7384 50.9309 24.6929C50.8384 24.5993 50.7878 24.4767 50.7896 24.3499V23.6639C50.5123 24.0697 50.1251 24.3999 49.628 24.6545C49.1308 24.9092 48.5423 25.0367 47.8623 25.0371C47.1972 25.0388 46.5909 24.9055 46.0433 24.6374ZM50.1582 22.215C50.5179 21.8227 50.6978 21.2474 50.6978 20.4888V20.2129L49.0927 20.5072C47.9594 20.7166 47.3929 21.1284 47.3931 21.7429C47.3931 22.0699 47.5252 22.3282 47.7894 22.5177C48.0536 22.7073 48.3747 22.8021 48.7527 22.8021C49.3317 22.8029 49.8008 22.6072 50.1599 22.215H50.1582Z" fill="#3068EF"/>
<path d="M55.9797 24.8979C55.8924 24.798 55.847 24.6695 55.8525 24.5382V15.1445C55.8471 15.0132 55.8925 14.8847 55.9797 14.7848C56.0203 14.7393 56.0707 14.7032 56.1273 14.679C56.1838 14.6549 56.2452 14.6432 56.3068 14.645H58.3965C58.4594 14.6438 58.5219 14.6557 58.5798 14.6798C58.6378 14.7039 58.6899 14.7397 58.7327 14.7848C58.7784 14.833 58.814 14.8896 58.8373 14.9514C58.8607 15.0131 58.8713 15.0787 58.8687 15.1445V15.9035C59.2006 15.4597 59.6329 15.0972 60.1317 14.8442C60.6465 14.5776 61.2306 14.4443 61.8842 14.4445C62.95 14.4445 63.816 14.8409 64.4824 15.6337C65.1488 16.4265 65.4818 17.5358 65.4816 18.9614V24.5376C65.4835 24.6653 65.4383 24.7893 65.3544 24.8871C65.3154 24.9351 65.2656 24.9736 65.2088 24.9996C65.1521 25.0256 65.0899 25.0384 65.0273 25.037H62.7381C62.677 25.0365 62.6169 25.0227 62.5619 24.9968C62.5069 24.9709 62.4585 24.9334 62.42 24.8871C62.3309 24.7918 62.2821 24.6668 62.2837 24.5376V19.0806C62.2837 18.4543 62.1444 17.9712 61.8657 17.6315C61.5871 17.2918 61.1868 17.1223 60.665 17.1232C60.1565 17.1232 59.7568 17.2926 59.4658 17.6315C59.1748 17.9704 59.0307 18.4534 59.0335 19.0806V24.5369C59.0354 24.6646 58.9903 24.7887 58.9063 24.8864C58.8674 24.9344 58.8176 24.9729 58.7609 24.9989C58.7042 25.0249 58.6421 25.0378 58.5795 25.0364H56.3078C56.2461 25.0385 56.1846 25.0272 56.1279 25.0032C56.0711 24.9793 56.0205 24.9433 55.9797 24.8979Z" fill="#3068EF"/>
<path d="M74.7647 25.8789C74.6516 25.7899 74.5542 25.6862 74.4758 25.5714L73.8433 24.7326C73.371 24.8938 72.8181 24.9746 72.1844 24.975C70.4323 24.975 69.0563 24.5463 68.0566 23.6889C67.0568 22.8315 66.5256 21.5703 66.463 19.9055C66.4503 19.5452 66.4441 19.0109 66.4443 18.3026C66.4443 17.5821 66.4506 17.0416 66.463 16.6812C66.5123 15.0418 67.0497 13.7777 68.0752 12.8889C69.1007 12.0001 70.4706 11.5556 72.1848 11.5556C73.8994 11.5556 75.2724 12.0001 76.3037 12.8889C77.335 13.7777 77.8755 15.0418 77.9252 16.6812C77.9499 17.4021 77.9623 17.9426 77.9625 18.3026C77.9625 18.6505 77.9501 19.1847 77.9252 19.9055C77.8757 21.4337 77.4284 22.6264 76.5833 23.4839L77.9439 25.4221C77.9765 25.4803 77.9955 25.5438 77.9998 25.6087V25.6457C78.001 25.6922 77.9917 25.7385 77.9725 25.7818C77.9533 25.825 77.9245 25.8644 77.8879 25.8976C77.8548 25.9299 77.8145 25.9557 77.7696 25.9733C77.7246 25.991 77.6761 26.0001 77.6269 26.0001H75.1855C75.0106 26.0001 74.8704 25.9597 74.7647 25.8789ZM73.813 21.676C74.2164 21.266 74.4307 20.6385 74.4558 19.7935C74.4809 19.0732 74.4933 18.5638 74.4931 18.2653C74.4931 17.9424 74.4806 17.433 74.4558 16.7371C74.4309 15.8922 74.2167 15.2647 73.813 14.8546C73.4093 14.4446 72.8655 14.2396 72.1818 14.2396C71.5107 14.2396 70.9733 14.4446 70.5696 14.8546C70.1659 15.2647 69.9515 15.8922 69.9264 16.7371C69.914 17.085 69.9078 17.5944 69.9078 18.2653C69.9078 18.924 69.914 19.4334 69.9264 19.7935C69.9515 20.6387 70.1623 21.2662 70.5589 21.676C70.9555 22.0858 71.496 22.2909 72.1805 22.2911C72.8655 22.2911 73.4097 22.086 73.813 21.676Z" fill="#3068EF"/>
<path d="M10.6475 9.46252H6.24496C6.08046 9.07274 5.91504 8.44327 5.8916 7.50657C5.92561 6.094 6.25921 4.7141 6.89242 3.53373C8.06141 1.52436 10.2436 0.0182107 13.3844 0.00231934H25.8601C26.1797 0.00231934 26.4863 0.124309 26.7123 0.34145C26.9384 0.558591 27.0654 0.853096 27.0654 1.16018V3.33685C27.0654 3.64394 26.9384 3.93844 26.7123 4.15558C26.4863 4.37272 26.1797 4.49471 25.8601 4.49471H13.4731C11.5698 4.49471 10.2312 5.84239 10.2312 7.58469C10.2312 7.60279 10.2312 7.62134 10.2312 7.63899C10.2312 7.64915 10.2312 7.65886 10.2312 7.66901C10.2312 7.73655 10.2312 7.80409 10.2376 7.87074C10.2735 8.67546 10.4605 9.1597 10.6475 9.46252Z" fill="#3068EF"/>
<path d="M0 24.8423V22.6652C0 22.3581 0.126986 22.0636 0.353023 21.8464C0.579059 21.6293 0.88563 21.5073 1.20529 21.5073H13.4742C15.378 21.5073 16.7161 20.1596 16.7161 18.4173V18.333C16.7161 18.265 16.7161 18.1975 16.7096 18.1308C16.6738 17.3226 16.4872 16.8388 16.2997 16.536H20.7018C20.8664 16.9257 21.0318 17.5552 21.0557 18.4924C21.0212 19.9085 20.6853 21.2875 20.0526 22.4687C18.8758 24.4887 16.6742 26.0001 13.5041 26.0001H1.20529C0.88563 26.0001 0.579059 25.8782 0.353023 25.661C0.126986 25.4439 0 25.1494 0 24.8423Z" fill="#3068EF"/>
<path d="M7.88423e-07 14.0886V11.9128C7.88423e-07 11.6057 0.126987 11.3112 0.353023 11.0941C0.57906 10.877 0.885631 10.755 1.20529 10.755H12.8769H13.5307C15.4028 10.7276 16.7133 9.38964 16.7133 7.66499V7.58067C16.7133 7.51269 16.7133 7.44516 16.7069 7.3785C16.671 6.57025 16.4845 6.08645 16.297 5.78363H20.6991C20.8636 6.17341 21.029 6.80288 21.0529 7.73959C21.0328 8.76675 20.8408 9.78412 20.4845 10.7528H25.8608C26.0191 10.7529 26.1759 10.7831 26.3222 10.8415C26.4684 10.8999 26.6013 10.9854 26.7131 11.0931C26.825 11.2008 26.9136 11.3287 26.974 11.4693C27.0344 11.61 27.0654 11.7607 27.0651 11.9128V14.0899C27.065 14.397 26.938 14.6914 26.712 14.9085C26.486 15.1257 26.1795 15.2477 25.8598 15.2478H14.0679C13.9539 15.2478 13.4085 15.2478 13.3786 15.2478C11.5268 15.292 10.2333 16.6242 10.2333 18.3351C10.2333 18.3537 10.2333 18.3718 10.2333 18.3894C10.2333 18.3996 10.2333 18.4093 10.2333 18.4195C10.2333 18.4874 10.2333 18.5545 10.2397 18.6212C10.2756 19.4294 10.4626 19.9137 10.6496 20.2165H6.24474C6.08024 19.8267 5.91481 19.1972 5.89138 18.2605C5.91143 17.2336 6.1032 16.2163 6.45933 15.2478H1.20529C1.0469 15.2478 0.890053 15.2178 0.74373 15.1595C0.597407 15.1013 0.464475 15.0159 0.352535 14.9082C0.240595 14.8006 0.151842 14.6728 0.0913517 14.5321C0.0308611 14.3915 -0.000180375 14.2408 7.88423e-07 14.0886Z" fill="#3068EF"/>
<path d="M33.253 3.12782C33.0179 3.12782 32.9004 3.02595 32.9004 2.82219V2.22975C32.9004 2.02599 33.0179 1.92412 33.253 1.92412H38.0867C38.3218 1.92412 38.4393 2.02599 38.4393 2.22975V2.82219C38.4393 3.02595 38.3218 3.12782 38.0867 3.12782H36.3563V8.40813C36.3563 8.58054 36.278 8.66674 36.1212 8.66674H35.2185C35.0617 8.66674 34.9834 8.58054 34.9834 8.40813V3.12782H33.253Z" fill="#222222"/>
<path d="M40.0658 8.66674C39.8464 8.66674 39.7367 8.54919 39.7367 8.31409V2.27677C39.7367 2.04167 39.8464 1.92412 40.0658 1.92412H44.1001C44.3352 1.92412 44.4527 2.02599 44.4527 2.22975V2.78458C44.4527 2.98833 44.3352 3.09021 44.1001 3.09021H41.1096V4.58543H43.8509C44.086 4.58543 44.2035 4.68731 44.2035 4.89106V5.44589C44.2035 5.64964 44.086 5.75152 43.8509 5.75152H41.1096V7.50065H44.2506C44.4857 7.50065 44.6032 7.60253 44.6032 7.80628V8.36111C44.6032 8.56486 44.4857 8.66674 44.2506 8.66674H40.0658Z" fill="#222222"/>
<path d="M46.2203 8.16363C46.026 8.0163 45.9789 7.86741 46.0793 7.71694L46.4413 7.17151C46.5604 6.99284 46.7344 6.98344 46.9632 7.1433C47.1388 7.26555 47.3676 7.39251 47.6497 7.52416C47.935 7.65268 48.2343 7.71694 48.5478 7.71694C48.7672 7.71694 48.9788 7.69187 49.1826 7.64171C49.3863 7.59156 49.5415 7.49438 49.648 7.35019C49.7546 7.206 49.8079 7.03516 49.8079 6.83767C49.8079 6.69662 49.7844 6.5728 49.7374 6.46622C49.6904 6.35964 49.6136 6.27187 49.507 6.20291C49.4004 6.13395 49.2907 6.07596 49.1778 6.02894C48.9804 5.94744 48.7312 5.8675 48.4302 5.78914C48.1324 5.70764 47.8378 5.61046 47.5463 5.49761C47.2861 5.39731 47.0479 5.25938 46.8316 5.08384C46.6153 4.9083 46.4476 4.71082 46.3285 4.49139C46.2093 4.27197 46.1498 3.97888 46.1498 3.61213C46.1498 3.17641 46.2908 2.80339 46.573 2.49306C46.8551 2.18273 47.1795 1.98368 47.5463 1.89591C47.913 1.80814 48.2829 1.76425 48.6559 1.76425C49.0258 1.76425 49.4067 1.82068 49.7985 1.93352C50.1935 2.04637 50.4913 2.18743 50.6919 2.3567C50.8894 2.52284 50.938 2.6733 50.8376 2.80809L50.4568 3.3206C50.3283 3.49614 50.1559 3.51025 49.9396 3.36292C49.8016 3.26888 49.612 3.16387 49.3706 3.04789C49.1324 2.93191 48.8832 2.87392 48.623 2.87392C48.4381 2.87392 48.2672 2.88959 48.1105 2.92094C47.9569 2.95228 47.8205 3.02751 47.7014 3.14663C47.5823 3.26575 47.5228 3.41308 47.5228 3.58862C47.5228 3.75789 47.5666 3.89581 47.6544 4.00239C47.7422 4.10583 47.8394 4.1842 47.9459 4.23749C48.0525 4.28764 48.1607 4.32996 48.2704 4.36444C48.6089 4.47415 48.9114 4.57133 49.1778 4.65596C49.4443 4.73746 49.6904 4.82837 49.9161 4.92868C50.2295 5.06974 50.4693 5.21079 50.6355 5.35185C50.8016 5.49291 50.938 5.68569 51.0445 5.9302C51.1542 6.1747 51.2091 6.46622 51.2091 6.80476C51.2091 7.3063 51.0492 7.72164 50.7295 8.05078C50.4098 8.37679 50.054 8.58681 49.6622 8.68085C49.2735 8.77802 48.8942 8.82661 48.5243 8.82661C47.9788 8.82661 47.5353 8.77332 47.1936 8.66674C46.8519 8.5633 46.5275 8.39559 46.2203 8.16363Z" fill="#222222"/>
<path d="M52.4359 3.12782C52.2008 3.12782 52.0833 3.02595 52.0833 2.82219V2.22975C52.0833 2.02599 52.2008 1.92412 52.4359 1.92412H57.2696C57.5047 1.92412 57.6222 2.02599 57.6222 2.22975V2.82219C57.6222 3.02595 57.5047 3.12782 57.2696 3.12782H55.5392V8.40813C55.5392 8.58054 55.4609 8.66674 55.3041 8.66674H54.4014C54.2446 8.66674 54.1663 8.58054 54.1663 8.40813V3.12782H52.4359Z" fill="#222222"/>
<path d="M59.2487 8.66674C59.0293 8.66674 58.9196 8.54919 58.9196 8.31409V2.27677C58.9196 2.04167 59.0293 1.92412 59.2487 1.92412H59.9446C60.2142 1.92412 60.4179 2.03383 60.5559 2.25326L62.9539 6.10417H62.9868C62.9711 5.91609 62.9633 5.72801 62.9633 5.53993V2.27677C62.9633 2.04167 63.073 1.92412 63.2924 1.92412H64.0071C64.2265 1.92412 64.3362 2.04167 64.3362 2.27677V8.31409C64.3362 8.54919 64.2265 8.66674 64.0071 8.66674H63.3582C63.0887 8.66674 62.8849 8.55703 62.747 8.3376L60.302 4.41616H60.269C60.2847 4.60424 60.2926 4.79232 60.2926 4.9804V8.31409C60.2926 8.54919 60.1828 8.66674 59.9634 8.66674H59.2487Z" fill="#222222"/>
<path d="M66.5552 8.66674C66.3358 8.66674 66.2261 8.54919 66.2261 8.31409V2.27677C66.2261 2.04167 66.3358 1.92412 66.5552 1.92412H70.5895C70.8246 1.92412 70.9421 2.02599 70.9421 2.22975V2.78458C70.9421 2.98833 70.8246 3.09021 70.5895 3.09021H67.599V4.58543H70.3403C70.5754 4.58543 70.6929 4.68731 70.6929 4.89106V5.44589C70.6929 5.64964 70.5754 5.75152 70.3403 5.75152H67.599V7.50065H70.7399C70.975 7.50065 71.0926 7.60253 71.0926 7.80628V8.36111C71.0926 8.56486 70.975 8.66674 70.7399 8.66674H66.5552Z" fill="#222222"/>
<path d="M72.39 3.12782C72.1549 3.12782 72.0373 3.02595 72.0373 2.82219V2.22975C72.0373 2.02599 72.1549 1.92412 72.39 1.92412H77.2236C77.4587 1.92412 77.5762 2.02599 77.5762 2.22975V2.82219C77.5762 3.02595 77.4587 3.12782 77.2236 3.12782H75.4933V8.40813C75.4933 8.58054 75.4149 8.66674 75.2582 8.66674H74.3554C74.1987 8.66674 74.1203 8.58054 74.1203 8.40813V3.12782H72.39Z" fill="#222222"/>
</g>
<defs>
<clipPath id="clip0_1872_9643">
<rect width="78" height="26" fill="white"/>
</clipPath>
</defs>
</svg>
