<svg width="78" height="26" viewBox="0 0 78 26" fill="none" xmlns="http://www.w3.org/2000/svg">
<g clip-path="url(#clip0_1872_9631)">
<path d="M32.8751 19.1148C32.7874 19.023 32.7395 18.9026 32.7411 18.7781V6.25943C32.7386 6.19605 32.7491 6.1328 32.7721 6.07333C32.7951 6.01386 32.8301 5.95933 32.8751 5.91287C32.9143 5.87053 32.9624 5.83662 33.0162 5.81336C33.07 5.79009 33.1284 5.778 33.1874 5.77786H38.6352C40.1356 5.77786 41.2522 6.1085 41.9848 6.76978C42.7175 7.43105 43.0837 8.37154 43.0835 9.59123C43.0835 10.2335 42.9317 10.776 42.628 11.2187C42.3243 11.6614 41.982 11.9855 41.6011 12.191C42.0902 12.4359 42.501 12.8276 42.8334 13.366C43.1658 13.9044 43.3325 14.5078 43.3333 15.1763C43.3333 16.4602 42.9404 17.4618 42.1546 18.1808C41.3687 18.8998 40.2495 19.2593 38.7969 19.2593H33.1874C33.1275 19.2588 33.0684 19.2456 33.0144 19.2206C32.9604 19.1956 32.9128 19.1595 32.8751 19.1148ZM38.2779 11.1308C38.7539 11.1308 39.117 10.9992 39.3673 10.7359C39.6177 10.4726 39.7427 10.1228 39.7425 9.68644C39.7425 9.26273 39.6174 8.9224 39.3673 8.66544C39.1172 8.40848 38.7541 8.2801 38.2779 8.28031H35.9561V11.1308H38.2779ZM38.4374 16.7544C38.9266 16.7544 39.3076 16.6004 39.5804 16.2922C39.8533 15.984 39.9903 15.6116 39.9913 15.175C39.9913 14.7128 39.8544 14.3308 39.5804 14.0291C39.3065 13.7275 38.9265 13.5771 38.4403 13.5779H35.9577V16.7557L38.4374 16.7544Z" fill="#3068EF"/>
<path d="M46.0433 18.8596C45.5151 18.6083 45.071 18.2285 44.759 17.7611C44.4509 17.2985 44.2906 16.7647 44.2965 16.2214C44.2965 15.3191 44.6522 14.5933 45.3634 14.0441C46.0746 13.4949 47.0534 13.1158 48.2998 12.9066L50.6607 12.5325V12.2581C50.6607 11.7611 50.5595 11.3949 50.3572 11.1596C50.1548 10.9243 49.8149 10.8067 49.3376 10.8067C49.0475 10.8067 48.8083 10.8586 48.6198 10.9626C48.4071 11.0847 48.2105 11.2295 48.0343 11.3941C47.8578 11.551 47.7257 11.6556 47.638 11.7078C47.6002 11.8125 47.5307 11.8637 47.4302 11.8637H45.3728C45.3139 11.8651 45.2554 11.8544 45.2015 11.8324C45.1476 11.8104 45.0997 11.7777 45.0612 11.7364C45.0212 11.6957 44.9912 11.6474 44.9732 11.595C44.9553 11.5425 44.9499 11.487 44.9573 11.4324C44.9699 11.0791 45.1367 10.6867 45.4578 10.2554C45.7789 9.82406 46.2699 9.45135 46.9307 9.13726C47.5918 8.82358 48.4069 8.66675 49.376 8.66675C50.9246 8.66675 52.0702 9.02304 52.8129 9.73561C53.5556 10.4482 53.9266 11.406 53.926 12.6092V18.5721C53.9277 18.6974 53.8808 18.8191 53.7938 18.9151C53.7531 18.9621 53.7013 18.9999 53.6424 19.0254C53.5834 19.051 53.5189 19.0636 53.4538 19.0623H51.2614C51.198 19.0617 51.1355 19.0482 51.0784 19.0228C51.0213 18.9973 50.9709 18.9606 50.9309 18.9151C50.8384 18.8215 50.7878 18.6989 50.7896 18.5721V17.8861C50.5123 18.2919 50.1251 18.6221 49.628 18.8767C49.1308 19.1314 48.5423 19.2589 47.8623 19.2593C47.1972 19.261 46.5909 19.1277 46.0433 18.8596ZM50.1582 16.4372C50.5179 16.0449 50.6978 15.4696 50.6978 14.7111V14.4351L49.0927 14.7294C47.9594 14.9388 47.3929 15.3507 47.3931 15.9651C47.3931 16.2921 47.5252 16.5504 47.7894 16.74C48.0536 16.9295 48.3747 17.0243 48.7527 17.0243C49.3317 17.0252 49.8008 16.8294 50.1599 16.4372H50.1582Z" fill="#3068EF"/>
<path d="M55.9797 19.1201C55.8924 19.0202 55.847 18.8917 55.8525 18.7604V9.36667C55.8471 9.23537 55.8925 9.10692 55.9797 9.00702C56.0203 8.96154 56.0707 8.92542 56.1273 8.90125C56.1838 8.87708 56.2452 8.86546 56.3068 8.86723H58.3965C58.4594 8.86605 58.5219 8.87789 58.5798 8.90198C58.6378 8.92607 58.6899 8.96187 58.7327 9.00702C58.7784 9.05525 58.814 9.11185 58.8373 9.17357C58.8607 9.23528 58.8713 9.30091 58.8687 9.36667V10.1257C59.2006 9.68193 59.6329 9.31939 60.1317 9.06643C60.6465 8.79977 61.2306 8.66654 61.8842 8.66675C62.95 8.66675 63.816 9.06315 64.4824 9.85594C65.1488 10.6487 65.4818 11.758 65.4816 13.1836V18.7598C65.4835 18.8875 65.4383 19.0115 65.3544 19.1093C65.3154 19.1573 65.2656 19.1958 65.2088 19.2218C65.1521 19.2478 65.0899 19.2606 65.0273 19.2592H62.7381C62.677 19.2587 62.6169 19.245 62.5619 19.219C62.5069 19.1931 62.4585 19.1556 62.42 19.1093C62.3309 19.014 62.2821 18.889 62.2837 18.7598V13.3028C62.2837 12.6765 62.1444 12.1934 61.8657 11.8537C61.5871 11.514 61.1868 11.3445 60.665 11.3454C60.1565 11.3454 59.7568 11.5148 59.4658 11.8537C59.1748 12.1926 59.0307 12.6756 59.0335 13.3028V18.7592C59.0354 18.8868 58.9903 19.0109 58.9063 19.1086C58.8674 19.1566 58.8176 19.1951 58.7609 19.2211C58.7042 19.2471 58.6421 19.26 58.5795 19.2586H56.3078C56.2461 19.2607 56.1846 19.2494 56.1279 19.2255C56.0711 19.2015 56.0205 19.1655 55.9797 19.1201Z" fill="#3068EF"/>
<path d="M74.7647 20.1011C74.6516 20.0121 74.5542 19.9084 74.4758 19.7936L73.8433 18.9549C73.371 19.116 72.8181 19.1968 72.1844 19.1972C70.4323 19.1972 69.0563 18.7685 68.0566 17.9111C67.0568 17.0537 66.5256 15.7925 66.463 14.1277C66.4503 13.7674 66.4441 13.2332 66.4443 12.5249C66.4443 11.8043 66.4506 11.2638 66.463 10.9034C66.5123 9.264 67.0497 7.9999 68.0752 7.11109C69.1007 6.22227 70.4706 5.77786 72.1848 5.77786C73.8994 5.77786 75.2724 6.22227 76.3037 7.11109C77.335 7.9999 77.8755 9.264 77.9252 10.9034C77.9499 11.6243 77.9623 12.1648 77.9625 12.5249C77.9625 12.8727 77.9501 13.407 77.9252 14.1277C77.8757 15.6559 77.4284 16.8487 76.5833 17.7061L77.9439 19.6443C77.9765 19.7025 77.9955 19.766 77.9998 19.8309V19.868C78.001 19.9145 77.9917 19.9607 77.9725 20.004C77.9533 20.0472 77.9245 20.0866 77.8879 20.1198C77.8548 20.1521 77.8145 20.1779 77.7696 20.1955C77.7246 20.2132 77.6761 20.2223 77.6269 20.2223H75.1855C75.0106 20.2223 74.8704 20.1819 74.7647 20.1011ZM73.813 15.8982C74.2164 15.4882 74.4307 14.8607 74.4558 14.0157C74.4809 13.2954 74.4933 12.786 74.4931 12.4875C74.4931 12.1646 74.4806 11.6552 74.4558 10.9594C74.4309 10.1144 74.2167 9.48689 73.813 9.07685C73.4093 8.66681 72.8655 8.46179 72.1818 8.46179C71.5107 8.46179 70.9733 8.66681 70.5696 9.07685C70.1659 9.48689 69.9515 10.1144 69.9264 10.9594C69.914 11.3072 69.9078 11.8166 69.9078 12.4875C69.9078 13.1462 69.914 13.6556 69.9264 14.0157C69.9515 14.8609 70.1623 15.4884 70.5589 15.8982C70.9555 16.3081 71.496 16.5131 72.1805 16.5133C72.8655 16.5133 73.4097 16.3083 73.813 15.8982Z" fill="#3068EF"/>
<path d="M10.6475 9.46252H6.24496C6.08046 9.07274 5.91504 8.44327 5.8916 7.50657C5.92561 6.094 6.25921 4.7141 6.89242 3.53373C8.06141 1.52436 10.2436 0.0182107 13.3844 0.00231934H25.8601C26.1797 0.00231934 26.4863 0.124309 26.7123 0.34145C26.9384 0.558591 27.0654 0.853096 27.0654 1.16018V3.33685C27.0654 3.64394 26.9384 3.93844 26.7123 4.15558C26.4863 4.37272 26.1797 4.49471 25.8601 4.49471H13.4731C11.5698 4.49471 10.2312 5.84239 10.2312 7.58469C10.2312 7.60279 10.2312 7.62134 10.2312 7.63899C10.2312 7.64915 10.2312 7.65886 10.2312 7.66901C10.2312 7.73655 10.2312 7.80409 10.2376 7.87074C10.2735 8.67546 10.4605 9.1597 10.6475 9.46252Z" fill="#3068EF"/>
<path d="M0 24.8423V22.6652C0 22.3581 0.126986 22.0636 0.353023 21.8464C0.579059 21.6293 0.88563 21.5073 1.20529 21.5073H13.4742C15.378 21.5073 16.7161 20.1596 16.7161 18.4173V18.333C16.7161 18.265 16.7161 18.1975 16.7096 18.1308C16.6738 17.3226 16.4872 16.8388 16.2997 16.536H20.7018C20.8664 16.9257 21.0318 17.5552 21.0557 18.4924C21.0212 19.9085 20.6853 21.2875 20.0526 22.4687C18.8758 24.4887 16.6742 26.0001 13.5041 26.0001H1.20529C0.88563 26.0001 0.579059 25.8782 0.353023 25.661C0.126986 25.4439 0 25.1494 0 24.8423Z" fill="#3068EF"/>
<path d="M7.88423e-07 14.0886V11.9128C7.88423e-07 11.6057 0.126987 11.3112 0.353023 11.0941C0.57906 10.877 0.885631 10.755 1.20529 10.755H12.8769H13.5307C15.4028 10.7276 16.7133 9.38964 16.7133 7.66499V7.58067C16.7133 7.51269 16.7133 7.44516 16.7069 7.3785C16.671 6.57025 16.4845 6.08645 16.297 5.78363H20.6991C20.8636 6.17341 21.029 6.80288 21.0529 7.73959C21.0328 8.76675 20.8408 9.78412 20.4845 10.7528H25.8608C26.0191 10.7529 26.1759 10.7831 26.3222 10.8415C26.4684 10.8999 26.6013 10.9854 26.7131 11.0931C26.825 11.2008 26.9136 11.3287 26.974 11.4693C27.0344 11.61 27.0654 11.7607 27.0651 11.9128V14.0899C27.065 14.397 26.938 14.6914 26.712 14.9085C26.486 15.1257 26.1795 15.2477 25.8598 15.2478H14.0679C13.9539 15.2478 13.4085 15.2478 13.3786 15.2478C11.5268 15.292 10.2333 16.6242 10.2333 18.3351C10.2333 18.3537 10.2333 18.3718 10.2333 18.3894C10.2333 18.3996 10.2333 18.4093 10.2333 18.4195C10.2333 18.4874 10.2333 18.5545 10.2397 18.6212C10.2756 19.4294 10.4626 19.9137 10.6496 20.2165H6.24474C6.08024 19.8267 5.91481 19.1972 5.89138 18.2605C5.91143 17.2336 6.1032 16.2163 6.45933 15.2478H1.20529C1.0469 15.2478 0.890053 15.2178 0.74373 15.1595C0.597407 15.1013 0.464475 15.0159 0.352535 14.9082C0.240595 14.8006 0.151842 14.6728 0.0913517 14.5321C0.0308611 14.3915 -0.000180375 14.2408 7.88423e-07 14.0886Z" fill="#3068EF"/>
</g>
<defs>
<clipPath id="clip0_1872_9631">
<rect width="78" height="26" fill="white"/>
</clipPath>
</defs>
</svg>
