<svg width="24" height="24" viewBox="0 0 24 24" fill="none" xmlns="http://www.w3.org/2000/svg">
<rect width="24" height="24" rx="4" fill="#F3BA2F"/>
<path fill-rule="evenodd" clip-rule="evenodd" d="M8.89402 10.723L12.0016 7.61678L15.1105 10.7255L16.9177 8.91715L12.0016 4L7.08557 8.91589L8.89402 10.723ZM4 12.0002L5.80779 10.1925L7.61557 12.0002L5.80779 13.808L4 12.0002ZM12.0016 16.3845L8.89397 13.277L7.083 15.0829L7.08553 15.0854L12.0016 20L16.9176 15.0829L16.9189 15.0816L15.1104 13.2758L12.0016 16.3845ZM16.3844 12.0007L18.1922 10.193L20 12.0007L18.1922 13.8084L16.3844 12.0007ZM12.0015 10.1644L13.8352 11.9993H13.8365L13.8352 12.0006L12.0015 13.8355L10.1678 12.0031L10.1652 11.9993L10.1678 11.9968L10.4888 11.6758L10.6455 11.5204L12.0015 10.1644Z" fill="white"/>
</svg>
