<svg width="500" height="500" viewBox="0 0 500 500" fill="none" xmlns="http://www.w3.org/2000/svg">
<rect width="500" height="500" fill="white"/>
<g clip-path="url(#clip0_3115_2881)">
<path d="M366.589 279.177C349.316 279.177 332.431 284.299 318.069 293.895C303.708 303.491 292.514 317.13 285.904 333.088C279.294 349.046 277.565 366.606 280.934 383.547C284.304 400.487 292.622 416.048 304.835 428.262C317.049 440.476 332.61 448.793 349.551 452.163C366.492 455.533 384.051 453.803 400.009 447.193C415.967 440.583 429.606 429.39 439.203 415.028C448.799 400.666 453.921 383.782 453.921 366.509C453.921 343.347 444.72 321.134 428.342 304.756C411.964 288.378 389.75 279.177 366.589 279.177V279.177ZM366.589 395.964C360.779 395.964 355.099 394.241 350.268 391.013C345.438 387.785 341.673 383.197 339.449 377.83C337.226 372.462 336.644 366.556 337.778 360.857C338.911 355.159 341.709 349.925 345.817 345.817C349.925 341.709 355.159 338.911 360.858 337.777C366.556 336.644 372.462 337.226 377.83 339.449C383.198 341.672 387.785 345.437 391.013 350.268C394.241 355.099 395.964 360.778 395.964 366.588C395.967 370.447 395.21 374.268 393.735 377.834C392.26 381.399 390.096 384.639 387.368 387.368C384.639 390.096 381.4 392.26 377.834 393.735C374.269 395.21 370.447 395.967 366.589 395.964Z" fill="#002FDB"/>
<path d="M133.464 46C110.303 46 88.0893 55.2011 71.7113 71.579C55.3334 87.957 46.1323 110.17 46.1323 133.332C46.1323 156.494 55.3334 178.707 71.7113 195.085C88.0893 211.463 110.303 220.664 133.464 220.664C156.626 220.664 178.84 211.463 195.218 195.085C211.596 178.707 220.797 156.494 220.797 133.332C220.797 110.17 211.596 87.957 195.218 71.579C178.84 55.2011 156.626 46 133.464 46V46ZM133.464 162.813C125.674 162.813 118.202 159.719 112.693 154.21C107.184 148.701 104.089 141.229 104.089 133.438C104.089 125.647 107.184 118.175 112.693 112.667C118.202 107.158 125.674 104.063 133.464 104.063C137.321 104.063 141.139 104.823 144.702 106.299C148.264 107.776 151.501 109.94 154.227 112.668C156.952 115.396 159.114 118.635 160.587 122.199C162.06 125.762 162.817 129.582 162.813 133.438C162.817 137.294 162.06 141.114 160.587 144.677C159.114 148.241 156.952 151.48 154.227 154.208C151.501 156.936 148.264 159.1 144.702 160.577C141.139 162.053 137.321 162.813 133.464 162.813V162.813Z" fill="#005CDC"/>
<path d="M378.259 128.489C375.241 121.317 370.173 115.196 363.691 110.893C357.208 106.59 349.599 104.296 341.818 104.301H249.907V162.522H291.985C292.859 162.522 293.732 163.687 293.732 164.56C293.752 164.718 293.737 164.879 293.686 165.03C293.636 165.181 293.552 165.319 293.441 165.433C293.15 165.724 293.15 166.016 292.859 166.307L223.443 235.458H305.932L369.79 171.626C375.322 166.087 379.08 159.027 380.588 151.346C382.096 143.665 381.285 135.708 378.259 128.489Z" fill="#005CDC"/>
<path d="M121.873 371.564C124.894 378.734 129.962 384.853 136.445 389.156C142.927 393.459 150.534 395.753 158.315 395.752H250.119V337.531H208.147C207.273 337.531 206.4 336.366 206.4 335.493C206.38 335.335 206.395 335.174 206.446 335.023C206.496 334.872 206.58 334.734 206.691 334.62C206.982 334.329 206.982 334.038 207.273 333.746L276.636 264.595H194.174L130.342 328.533C124.832 334.063 121.086 341.104 119.579 348.764C118.071 356.423 118.87 364.358 121.873 371.564V371.564Z" fill="#002FDB"/>
</g>
<defs>
<clipPath id="clip0_3115_2881">
<rect width="408" height="408" fill="white" transform="translate(46 46)"/>
</clipPath>
</defs>
</svg>
