<svg width="109" height="24" viewBox="0 0 109 24" fill="none" xmlns="http://www.w3.org/2000/svg">
<rect x="71" width="38" height="11" rx="5.5" fill="#227BFF"/>
<path d="M20.3385 11.9551V15.3837C20.3385 15.4707 20.3893 15.5252 20.491 15.5469C20.8864 15.6014 21.2592 15.6286 21.6094 15.6286C22.547 15.6286 23.2305 15.4653 23.6598 15.1388C24.1003 14.8014 24.3206 14.2898 24.3206 13.6041C24.3206 12.9946 24.0665 12.5483 23.5581 12.2653C23.061 11.9714 22.2307 11.8245 21.0671 11.8245H20.474C20.3837 11.8245 20.3385 11.868 20.3385 11.9551ZM20.3385 7.18776V9.97959C20.3385 10.0776 20.3837 10.1265 20.474 10.1265H20.9654C22.0161 10.1265 22.773 9.99048 23.2361 9.71837C23.7106 9.43537 23.9478 9.02177 23.9478 8.47755C23.9478 7.9551 23.7558 7.56871 23.3717 7.31837C22.9876 7.06803 22.3606 6.94286 21.4908 6.94286C21.0954 6.94286 20.7565 6.96463 20.474 7.00816C20.3837 7.02993 20.3385 7.0898 20.3385 7.18776ZM18.9489 17.2776C18.6778 17.2558 18.4519 17.1469 18.2711 16.951C18.0904 16.7442 18 16.5048 18 16.2327V6.33878C18 6.06667 18.0904 5.83265 18.2711 5.63673C18.4519 5.42993 18.6835 5.31565 18.9659 5.29388C19.8019 5.2068 20.6096 5.16327 21.3891 5.16327C24.5522 5.16327 26.1338 6.15918 26.1338 8.15102C26.1338 8.81497 25.9022 9.39184 25.439 9.88163C24.9759 10.3714 24.3658 10.6871 23.6089 10.8286C23.5976 10.8286 23.592 10.834 23.592 10.8449C23.592 10.8667 23.5976 10.8776 23.6089 10.8776C24.5353 11.0082 25.2583 11.3401 25.7779 11.8735C26.3089 12.3959 26.5744 13.0435 26.5744 13.8163C26.5744 15.0136 26.1677 15.9116 25.3543 16.5102C24.5409 17.1088 23.2757 17.4082 21.5585 17.4082C20.7 17.4082 19.8301 17.3646 18.9489 17.2776Z" fill="url(#paint0_linear_3217_2925)"/>
<path d="M29.288 17.2449C29.0282 17.2449 28.8023 17.1524 28.6102 16.9673C28.4182 16.7823 28.3221 16.5646 28.3221 16.3143V9.68571C28.3221 9.43537 28.4182 9.21769 28.6102 9.03265C28.8023 8.84762 29.0282 8.7551 29.288 8.7551H29.6269C29.8868 8.7551 30.1127 8.84762 30.3048 9.03265C30.4968 9.21769 30.5928 9.43537 30.5928 9.68571V10.3714C30.5928 10.3823 30.5985 10.3878 30.6098 10.3878C30.6324 10.3878 30.6437 10.3823 30.6437 10.3714C30.9713 9.93605 31.4006 9.58231 31.9315 9.3102C32.4625 9.02721 33.0443 8.85306 33.6769 8.78776C33.9141 8.76599 34.1175 8.84218 34.2869 9.01633C34.4564 9.17959 34.5411 9.37551 34.5411 9.60408C34.5411 9.83265 34.4564 10.0286 34.2869 10.1918C34.1175 10.3551 33.9141 10.4476 33.6769 10.4694C31.6773 10.6218 30.6775 11.6014 30.6775 13.4082V16.3143C30.6775 16.5646 30.5815 16.7823 30.3895 16.9673C30.1974 17.1524 29.9715 17.2449 29.7117 17.2449H29.288Z" fill="url(#paint1_linear_3217_2925)"/>
<path d="M38.0209 17.2449C37.761 17.2449 37.5351 17.1524 37.3431 16.9673C37.151 16.7823 37.055 16.5646 37.055 16.3143V9.68571C37.055 9.43537 37.151 9.21769 37.3431 9.03265C37.5351 8.84762 37.761 8.7551 38.0209 8.7551H38.4614C38.7213 8.7551 38.9472 8.84762 39.1393 9.03265C39.3313 9.21769 39.4273 9.43537 39.4273 9.68571V16.3143C39.4273 16.5646 39.3313 16.7823 39.1393 16.9673C38.9472 17.1524 38.7213 17.2449 38.4614 17.2449H38.0209ZM38.0209 6.95918C37.761 6.95918 37.5351 6.86667 37.3431 6.68163C37.151 6.4966 37.055 6.27891 37.055 6.02857V5.93061C37.055 5.68027 37.151 5.46259 37.3431 5.27755C37.5351 5.09252 37.761 5 38.0209 5H38.4614C38.7213 5 38.9472 5.09252 39.1393 5.27755C39.3313 5.46259 39.4273 5.68027 39.4273 5.93061V6.02857C39.4273 6.27891 39.3313 6.4966 39.1393 6.68163C38.9472 6.86667 38.7213 6.95918 38.4614 6.95918H38.0209Z" fill="url(#paint2_linear_3217_2925)"/>
<path d="M45.9495 10.2245C44.6503 10.2245 44.0007 11.1497 44.0007 13C44.0007 13.9252 44.1758 14.6218 44.5261 15.0898C44.8763 15.5469 45.3507 15.7755 45.9495 15.7755C46.4804 15.7755 46.9379 15.6068 47.322 15.2694C47.7061 14.932 47.8982 14.5456 47.8982 14.1102V11.8898C47.8982 11.4544 47.7061 11.068 47.322 10.7306C46.9379 10.3932 46.4804 10.2245 45.9495 10.2245ZM45.2717 17.4082C44.2662 17.4082 43.4302 17.0163 42.7637 16.2327C42.0972 15.4381 41.764 14.3605 41.764 13C41.764 11.5959 42.0803 10.5129 42.7129 9.75102C43.3568 8.97823 44.2097 8.59184 45.2717 8.59184C46.2319 8.59184 47.0792 8.92925 47.8135 9.60408C47.8248 9.61497 47.8361 9.62041 47.8474 9.62041C47.8586 9.62041 47.8643 9.61497 47.8643 9.60408V5.93061C47.8643 5.68027 47.9603 5.46259 48.1524 5.27755C48.3444 5.09252 48.5704 5 48.8302 5H49.1691C49.4289 5 49.6549 5.09252 49.8469 5.27755C50.039 5.46259 50.135 5.68027 50.135 5.93061V16.3143C50.135 16.5646 50.039 16.7823 49.8469 16.9673C49.6549 17.1524 49.4289 17.2449 49.1691 17.2449H48.9827C48.7116 17.2449 48.48 17.1578 48.2879 16.9837C48.1072 16.7986 48.0112 16.5755 47.9999 16.3143L47.9829 16.2C47.9829 16.1891 47.9773 16.1837 47.966 16.1837C47.9547 16.1837 47.9434 16.1891 47.9321 16.2C47.1865 17.0054 46.2997 17.4082 45.2717 17.4082Z" fill="url(#paint3_linear_3217_2925)"/>
<path d="M56.1578 10.2245C54.9151 10.2245 54.2938 11.0952 54.2938 12.8367C54.2938 13.7401 54.4576 14.415 54.7852 14.8612C55.1241 15.3075 55.5816 15.5306 56.1578 15.5306C56.6661 15.5306 57.101 15.3565 57.4625 15.0082C57.8353 14.6599 58.0217 14.2517 58.0217 13.7837V12.0204C58.0217 11.5197 57.8353 11.0952 57.4625 10.7469C57.101 10.3986 56.6661 10.2245 56.1578 10.2245ZM55.446 17.1633C54.4519 17.1633 53.6385 16.7823 53.0059 16.0204C52.3733 15.2476 52.057 14.1864 52.057 12.8367C52.057 11.4871 52.3563 10.4422 52.9551 9.70204C53.5651 8.96191 54.3954 8.59184 55.446 8.59184C55.977 8.59184 56.4458 8.68435 56.8525 8.86939C57.2592 9.05442 57.6602 9.36463 58.0556 9.8C58.0669 9.81088 58.0782 9.81633 58.0895 9.81633C58.1008 9.81633 58.1065 9.81088 58.1065 9.8V9.68571C58.1178 9.42449 58.2194 9.2068 58.4115 9.03265C58.6035 8.84762 58.8351 8.7551 59.1063 8.7551H59.2927C59.5525 8.7551 59.7728 8.84762 59.9535 9.03265C60.1456 9.21769 60.2416 9.43537 60.2416 9.68571V16.5918C60.2416 19.5306 58.7165 21 55.6663 21C55.1241 21 54.5536 20.9565 53.9549 20.8694C53.6837 20.8259 53.4578 20.6952 53.277 20.4775C53.1076 20.2707 53.0229 20.0313 53.0229 19.7592C53.0229 19.5415 53.1132 19.3673 53.294 19.2367C53.486 19.117 53.695 19.0844 53.921 19.1388C54.4632 19.2694 55.0281 19.3347 55.6155 19.3347C56.4515 19.3347 57.0615 19.1224 57.4456 18.698C57.8297 18.2844 58.0217 17.5986 58.0217 16.6408V16.1347C58.0217 16.1238 58.0161 16.1184 58.0048 16.1184C57.9935 16.1184 57.9822 16.1238 57.9709 16.1347C57.2931 16.8204 56.4515 17.1633 55.446 17.1633Z" fill="url(#paint4_linear_3217_2925)"/>
<path d="M66.1694 10.1102C65.5933 10.1102 65.1471 10.268 64.8308 10.5837C64.5257 10.8884 64.3337 11.3837 64.2546 12.0694C64.2546 12.1565 64.2998 12.2 64.3902 12.2H67.7115C67.8019 12.2 67.847 12.1565 67.847 12.0694C67.8019 10.7633 67.2427 10.1102 66.1694 10.1102ZM66.5931 17.4082C65.1132 17.4082 63.9722 17.0381 63.1701 16.298C62.3793 15.5469 61.9839 14.4476 61.9839 13C61.9839 11.5633 62.3398 10.4694 63.0515 9.71837C63.7632 8.96735 64.7912 8.59184 66.1356 8.59184C68.6435 8.59184 69.9313 9.96327 69.9991 12.7061C70.0104 12.9673 69.9144 13.185 69.711 13.3592C69.5077 13.5333 69.2705 13.6204 68.9993 13.6204H64.3732C64.2716 13.6204 64.232 13.6694 64.2546 13.7673C64.3337 14.4966 64.5822 15.0299 65.0002 15.3673C65.4295 15.6939 66.0508 15.8571 66.8642 15.8571C67.3726 15.8571 67.9374 15.7755 68.5587 15.6122C68.7621 15.5578 68.9485 15.5905 69.1179 15.7102C69.2987 15.8299 69.3891 15.9932 69.3891 16.2C69.3891 16.4503 69.31 16.6735 69.1518 16.8694C69.005 17.0544 68.8073 17.1687 68.5587 17.2122C67.9261 17.3429 67.2709 17.4082 66.5931 17.4082Z" fill="url(#paint5_linear_3217_2925)"/>
<g clip-path="url(#clip0_3217_2925)">
<path d="M12.5723 13.144C11.8949 13.144 11.2327 13.3449 10.6695 13.7212C10.1063 14.0975 9.66737 14.6324 9.40816 15.2582C9.14894 15.884 9.08112 16.5726 9.21327 17.237C9.34542 17.9013 9.67159 18.5116 10.1506 18.9905C10.6295 19.4695 11.2398 19.7957 11.9041 19.9278C12.5685 20.06 13.2571 19.9921 13.8829 19.7329C14.5087 19.4737 15.0435 19.0347 15.4199 18.4715C15.7962 17.9083 15.997 17.2462 15.997 16.5688C15.997 15.6605 15.6362 14.7894 14.9939 14.1471C14.3517 13.5049 13.4806 13.144 12.5723 13.144V13.144ZM12.5723 17.7239C12.3444 17.7239 12.1217 17.6564 11.9323 17.5298C11.7428 17.4032 11.5952 17.2233 11.508 17.0128C11.4208 16.8023 11.398 16.5707 11.4424 16.3472C11.4869 16.1237 11.5966 15.9185 11.7577 15.7574C11.9188 15.5963 12.1241 15.4866 12.3475 15.4421C12.571 15.3977 12.8026 15.4205 13.0131 15.5077C13.2236 15.5949 13.4035 15.7425 13.5301 15.9319C13.6567 16.1214 13.7242 16.3441 13.7242 16.5719C13.7244 16.7233 13.6947 16.8731 13.6368 17.013C13.579 17.1528 13.4941 17.2798 13.3871 17.3868C13.2801 17.4938 13.1531 17.5787 13.0133 17.6365C12.8734 17.6944 12.7236 17.7241 12.5723 17.7239Z" fill="#002FDB"/>
<path d="M3.43016 4C2.52185 4 1.65074 4.36083 1.00847 5.0031C0.366196 5.64537 0.00537109 6.51648 0.00537109 7.42479C0.00537109 8.3331 0.366196 9.20421 1.00847 9.84648C1.65074 10.4888 2.52185 10.8496 3.43016 10.8496C4.33847 10.8496 5.20958 10.4888 5.85185 9.84648C6.49413 9.20421 6.85495 8.3331 6.85495 7.42479C6.85495 6.51648 6.49413 5.64537 5.85185 5.0031C5.20958 4.36083 4.33847 4 3.43016 4V4ZM3.43016 8.58092C3.12464 8.58092 2.83163 8.45955 2.61559 8.24351C2.39956 8.02747 2.27819 7.73447 2.27819 7.42894C2.27819 7.12342 2.39956 6.83041 2.61559 6.61437C2.83163 6.39834 3.12464 6.27697 3.43016 6.27697C3.58139 6.27697 3.73114 6.30677 3.87085 6.36468C4.01055 6.42258 4.13748 6.50745 4.24436 6.61444C4.35125 6.72142 4.43601 6.84842 4.49379 6.98818C4.55157 7.12794 4.58124 7.27771 4.5811 7.42894C4.58124 7.58017 4.55157 7.72995 4.49379 7.86971C4.43601 8.00946 4.35125 8.13646 4.24436 8.24345C4.13748 8.35043 4.01055 8.4353 3.87085 8.49321C3.73114 8.55111 3.58139 8.58092 3.43016 8.58092V8.58092Z" fill="#005CDC"/>
<path d="M13.0297 7.2347C12.9114 6.95344 12.7126 6.71338 12.4584 6.54464C12.2042 6.37589 11.9058 6.28596 11.6006 6.28613H7.99631V8.56933H9.64644C9.68069 8.56933 9.71493 8.61499 9.71493 8.64924C9.71573 8.65544 9.71512 8.66174 9.71314 8.66767C9.71117 8.6736 9.70788 8.67901 9.70352 8.68349C9.6921 8.6949 9.6921 8.70632 9.68069 8.71773L6.9585 11.4295H10.1934L12.6976 8.92634C12.9145 8.70911 13.0619 8.43228 13.1211 8.13105C13.1802 7.82982 13.1484 7.5178 13.0297 7.2347Z" fill="#005CDC"/>
<path d="M2.97555 16.7671C3.094 17.0483 3.29277 17.2883 3.54698 17.457C3.80118 17.6257 4.09952 17.7157 4.40463 17.7157H8.00481V15.4325H6.35883C6.32458 15.4325 6.29034 15.3868 6.29034 15.3526C6.28954 15.3464 6.29015 15.3401 6.29213 15.3341C6.2941 15.3282 6.29739 15.3228 6.30175 15.3183C6.31317 15.3069 6.31317 15.2955 6.32458 15.2841L9.0447 12.5723H5.81087L3.30765 15.0796C3.09158 15.2965 2.94468 15.5726 2.88557 15.873C2.82645 16.1734 2.85777 16.4845 2.97555 16.7671V16.7671Z" fill="#002FDB"/>
</g>
<path d="M75.5091 3.0973C75.3722 3.0973 75.2531 3.04685 75.1518 2.94595C75.0506 2.83874 75 2.71261 75 2.56757V2.53919C75 2.39414 75.0506 2.26802 75.1518 2.16081C75.2531 2.0536 75.3722 2 75.5091 2H79.3141C79.451 2 79.5701 2.0536 79.6713 2.16081C79.7726 2.26802 79.8232 2.39414 79.8232 2.53919V2.56757C79.8232 2.71261 79.7726 2.83874 79.6713 2.94595C79.5701 3.04685 79.451 3.0973 79.3141 3.0973H78.1172C78.0696 3.0973 78.0457 3.12568 78.0457 3.18243V8.36622C78.0457 8.51126 77.9951 8.63739 77.8939 8.74459C77.7927 8.8518 77.6736 8.90541 77.5366 8.90541H77.2865C77.1496 8.90541 77.0305 8.8518 76.9293 8.74459C76.828 8.63739 76.7774 8.51126 76.7774 8.36622V3.18243C76.7774 3.12568 76.7536 3.0973 76.706 3.0973H75.5091Z" fill="white"/>
<path d="M81.5702 4.77162C81.2665 4.77162 81.0313 4.86306 80.8646 5.04595C80.7038 5.22252 80.6026 5.50946 80.5609 5.90676C80.5609 5.95721 80.5847 5.98243 80.6323 5.98243H82.383C82.4306 5.98243 82.4544 5.95721 82.4544 5.90676C82.4306 5.15 82.1358 4.77162 81.5702 4.77162ZM81.7935 9C81.0134 9 80.412 8.78559 79.9892 8.35676C79.5724 7.92162 79.364 7.28468 79.364 6.44595C79.364 5.61351 79.5516 4.97973 79.9267 4.54459C80.3019 4.10946 80.8437 3.89189 81.5523 3.89189C82.8742 3.89189 83.553 4.68649 83.5888 6.27568C83.5947 6.42703 83.5441 6.55315 83.4369 6.65405C83.3297 6.75496 83.2047 6.80541 83.0618 6.80541H80.6234C80.5698 6.80541 80.549 6.83378 80.5609 6.89054C80.6026 7.31306 80.7336 7.62207 80.9539 7.81757C81.1801 8.00676 81.5076 8.10135 81.9364 8.10135C82.2043 8.10135 82.5021 8.05405 82.8296 7.95946C82.9367 7.92793 83.035 7.94685 83.1243 8.01622C83.2196 8.08559 83.2672 8.18018 83.2672 8.3C83.2672 8.44505 83.2255 8.57432 83.1422 8.68784C83.0648 8.79505 82.9606 8.86126 82.8296 8.88649C82.4961 8.96216 82.1507 9 81.7935 9Z" fill="white"/>
<path d="M85.7047 6.91892C85.0795 6.77387 84.6329 6.57523 84.3649 6.32297C84.1029 6.07072 83.9719 5.74279 83.9719 5.33919C83.9719 4.88514 84.1297 4.53198 84.4453 4.27973C84.7668 4.02117 85.2402 3.89189 85.8655 3.89189C86.2585 3.89189 86.6485 3.92973 87.0355 4.00541C87.1665 4.03063 87.2707 4.1 87.3481 4.21351C87.4315 4.32072 87.4732 4.44685 87.4732 4.59189C87.4732 4.71171 87.4285 4.80946 87.3392 4.88514C87.2499 4.9545 87.1487 4.97342 87.0355 4.94189C86.7021 4.8536 86.3507 4.80946 85.9816 4.80946C85.4457 4.80946 85.1777 4.96712 85.1777 5.28243C85.1777 5.43378 85.2283 5.55991 85.3295 5.66081C85.4308 5.76171 85.6035 5.84054 85.8476 5.8973C86.5324 6.04234 86.9998 6.23784 87.2499 6.48378C87.5059 6.72973 87.6339 7.08919 87.6339 7.56216C87.6339 8.01622 87.4732 8.36937 87.1516 8.62162C86.8301 8.87387 86.3627 9 85.7493 9C85.3504 9 84.9425 8.94955 84.5257 8.84865C84.3947 8.81712 84.2875 8.74459 84.2041 8.63108C84.1208 8.51126 84.0791 8.37568 84.0791 8.22433C84.0791 8.10451 84.1238 8.01306 84.2131 7.95C84.3083 7.88694 84.4096 7.87117 84.5168 7.9027C84.9038 8.01622 85.27 8.07297 85.6154 8.07297C86.1572 8.07297 86.4282 7.9027 86.4282 7.56216C86.4282 7.3982 86.3746 7.26892 86.2674 7.17432C86.1662 7.07973 85.9786 6.99459 85.7047 6.91892Z" fill="white"/>
<path d="M88.3132 5.09324C88.1941 5.09324 88.0929 5.0491 88.0095 4.96081C87.9261 4.86622 87.8845 4.75586 87.8845 4.62973C87.8845 4.5036 87.9261 4.3964 88.0095 4.30811C88.0929 4.21982 88.1941 4.17568 88.3132 4.17568H88.7419C88.7955 4.17568 88.8223 4.1473 88.8223 4.09054V2.91757C88.8223 2.77252 88.8699 2.6464 88.9652 2.53919C89.0664 2.43198 89.1855 2.37838 89.3225 2.37838H89.5011C89.6381 2.37838 89.7572 2.43198 89.8584 2.53919C89.9596 2.6464 90.0102 2.77252 90.0102 2.91757V4.09054C90.0102 4.1473 90.037 4.17568 90.0906 4.17568H91.1088C91.2279 4.17568 91.3292 4.21982 91.4125 4.30811C91.5018 4.3964 91.5465 4.5036 91.5465 4.62973C91.5465 4.75586 91.5018 4.86622 91.4125 4.96081C91.3292 5.0491 91.2279 5.09324 91.1088 5.09324H90.0906C90.037 5.09324 90.0102 5.11847 90.0102 5.16892V7.07973C90.0102 7.48964 90.0519 7.7545 90.1353 7.87432C90.2186 7.99414 90.3913 8.05405 90.6533 8.05405C90.7962 8.05405 90.9034 8.04775 90.9749 8.03514C91.0939 8.02252 91.1982 8.0509 91.2875 8.12027C91.3768 8.18964 91.4214 8.28423 91.4214 8.40405C91.4214 8.54279 91.3768 8.66892 91.2875 8.78243C91.2041 8.88964 91.0999 8.94955 90.9749 8.96216C90.7129 8.98739 90.5164 9 90.3854 9C89.8078 9 89.4029 8.87072 89.1706 8.61216C88.9384 8.3473 88.8223 7.87748 88.8223 7.2027V5.16892C88.8223 5.11847 88.7955 5.09324 88.7419 5.09324H88.3132Z" fill="white"/>
<path d="M92.8455 8.90541C92.7086 8.90541 92.5895 8.8518 92.4882 8.74459C92.387 8.63739 92.3364 8.51126 92.3364 8.36622V4.52568C92.3364 4.38063 92.387 4.2545 92.4882 4.1473C92.5895 4.04009 92.7086 3.98649 92.8455 3.98649H92.9616C93.1045 3.98649 93.2236 4.04009 93.3189 4.1473C93.4201 4.2482 93.4737 4.37432 93.4797 4.52568V4.59189C93.4797 4.5982 93.4826 4.60135 93.4886 4.60135C93.4946 4.60135 93.5005 4.5982 93.5065 4.59189C93.9114 4.12523 94.3848 3.89189 94.9266 3.89189C95.4685 3.89189 95.8615 4.05586 96.1056 4.38378C96.3557 4.70541 96.4807 5.2446 96.4807 6.00135V8.36622C96.4807 8.51126 96.4301 8.63739 96.3289 8.74459C96.2277 8.8518 96.1086 8.90541 95.9716 8.90541H95.8198C95.6828 8.90541 95.5638 8.8518 95.4625 8.74459C95.3673 8.63739 95.3196 8.51126 95.3196 8.36622V6.09595C95.3196 5.62297 95.2601 5.30135 95.141 5.13108C95.0278 4.9545 94.8224 4.86622 94.5247 4.86622C94.2805 4.86622 94.0543 4.97658 93.8459 5.1973C93.6375 5.41802 93.5333 5.6545 93.5333 5.90676V8.36622C93.5333 8.51126 93.4826 8.63739 93.3814 8.74459C93.2802 8.8518 93.1611 8.90541 93.0241 8.90541H92.8455Z" fill="white"/>
<path d="M99.1128 4.77162C98.8091 4.77162 98.5739 4.86306 98.4072 5.04595C98.2464 5.22252 98.1452 5.50946 98.1035 5.90676C98.1035 5.95721 98.1273 5.98243 98.1749 5.98243H99.9256C99.9732 5.98243 99.997 5.95721 99.997 5.90676C99.9732 5.15 99.6784 4.77162 99.1128 4.77162ZM99.3361 9C98.556 9 97.9546 8.78559 97.5318 8.35676C97.115 7.92162 96.9066 7.28468 96.9066 6.44595C96.9066 5.61351 97.0942 4.97973 97.4693 4.54459C97.8445 4.10946 98.3863 3.89189 99.0949 3.89189C100.417 3.89189 101.096 4.68649 101.131 6.27568C101.137 6.42703 101.087 6.55315 100.98 6.65405C100.872 6.75496 100.747 6.80541 100.604 6.80541H98.166C98.1124 6.80541 98.0916 6.83378 98.1035 6.89054C98.1452 7.31306 98.2762 7.62207 98.4965 7.81757C98.7227 8.00676 99.0502 8.10135 99.479 8.10135C99.7469 8.10135 100.045 8.05405 100.372 7.95946C100.479 7.92793 100.578 7.94685 100.667 8.01622C100.762 8.08559 100.81 8.18018 100.81 8.3C100.81 8.44505 100.768 8.57432 100.685 8.68784C100.607 8.79505 100.503 8.86126 100.372 8.88649C100.039 8.96216 99.6933 9 99.3361 9Z" fill="white"/>
<path d="M101.767 5.09324C101.648 5.09324 101.546 5.0491 101.463 4.96081C101.38 4.86622 101.338 4.75586 101.338 4.62973C101.338 4.5036 101.38 4.3964 101.463 4.30811C101.546 4.21982 101.648 4.17568 101.767 4.17568H102.195C102.249 4.17568 102.276 4.1473 102.276 4.09054V2.91757C102.276 2.77252 102.323 2.6464 102.419 2.53919C102.52 2.43198 102.639 2.37838 102.776 2.37838H102.955C103.092 2.37838 103.211 2.43198 103.312 2.53919C103.413 2.6464 103.464 2.77252 103.464 2.91757V4.09054C103.464 4.1473 103.491 4.17568 103.544 4.17568H104.562C104.681 4.17568 104.783 4.21982 104.866 4.30811C104.955 4.3964 105 4.5036 105 4.62973C105 4.75586 104.955 4.86622 104.866 4.96081C104.783 5.0491 104.681 5.09324 104.562 5.09324H103.544C103.491 5.09324 103.464 5.11847 103.464 5.16892V7.07973C103.464 7.48964 103.505 7.7545 103.589 7.87432C103.672 7.99414 103.845 8.05405 104.107 8.05405C104.25 8.05405 104.357 8.04775 104.428 8.03514C104.547 8.02252 104.652 8.0509 104.741 8.12027C104.83 8.18964 104.875 8.28423 104.875 8.40405C104.875 8.54279 104.83 8.66892 104.741 8.78243C104.658 8.88964 104.553 8.94955 104.428 8.96216C104.166 8.98739 103.97 9 103.839 9C103.261 9 102.856 8.87072 102.624 8.61216C102.392 8.3473 102.276 7.87748 102.276 7.2027V5.16892C102.276 5.11847 102.249 5.09324 102.195 5.09324H101.767Z" fill="white"/>
<defs>
<linearGradient id="paint0_linear_3217_2925" x1="33.3833" y1="9.5875" x2="36.1947" y2="23.7377" gradientUnits="userSpaceOnUse">
<stop stop-color="#19113E"/>
<stop offset="1" stop-color="#041D75"/>
</linearGradient>
<linearGradient id="paint1_linear_3217_2925" x1="33.3833" y1="9.5875" x2="36.1947" y2="23.7377" gradientUnits="userSpaceOnUse">
<stop stop-color="#19113E"/>
<stop offset="1" stop-color="#041D75"/>
</linearGradient>
<linearGradient id="paint2_linear_3217_2925" x1="33.3833" y1="9.5875" x2="36.1947" y2="23.7377" gradientUnits="userSpaceOnUse">
<stop stop-color="#19113E"/>
<stop offset="1" stop-color="#041D75"/>
</linearGradient>
<linearGradient id="paint3_linear_3217_2925" x1="33.3833" y1="9.5875" x2="36.1947" y2="23.7377" gradientUnits="userSpaceOnUse">
<stop stop-color="#19113E"/>
<stop offset="1" stop-color="#041D75"/>
</linearGradient>
<linearGradient id="paint4_linear_3217_2925" x1="33.3833" y1="9.5875" x2="36.1947" y2="23.7377" gradientUnits="userSpaceOnUse">
<stop stop-color="#19113E"/>
<stop offset="1" stop-color="#041D75"/>
</linearGradient>
<linearGradient id="paint5_linear_3217_2925" x1="33.3833" y1="9.5875" x2="36.1947" y2="23.7377" gradientUnits="userSpaceOnUse">
<stop stop-color="#19113E"/>
<stop offset="1" stop-color="#041D75"/>
</linearGradient>
<clipPath id="clip0_3217_2925">
<rect width="16" height="16" fill="white" transform="translate(0 4)"/>
</clipPath>
</defs>
</svg>
