<?xml version="1.0" encoding="utf-8"?>
<!-- Generator: Adobe Illustrator 26.0.2, SVG Export Plug-In . SVG Version: 6.00 Build 0)  -->
<svg version="1.1" id="圖層_1" xmlns="http://www.w3.org/2000/svg" xmlns:xlink="http://www.w3.org/1999/xlink" x="0px" y="0px"
	 viewBox="0 0 400 160" style="enable-background:new 0 0 400 160;" xml:space="preserve">
<style type="text/css">
	.st0{fill:#FFFFFF;}
	.st1{fill:url(#SVGID_1_);}
	.st2{clip-path:url(#SVGID_00000124121593345370298560000015912100070460904594_);}
	.st3{fill:#040000;}
	.st4{clip-path:url(#SVGID_00000101816032606250915800000008941103460253989787_);}
	.st5{fill:#4D4D4D;}
	.st6{fill:#666666;}
	.st7{fill:#323333;}
	.st8{fill:none;stroke:#040000;stroke-miterlimit:10;}
	.st9{fill:#222222;}
	.st10{fill:url(#SVGID_00000039815140400253905980000011187887641560570532_);}
	.st11{fill:url(#SVGID_00000069398882005970139300000003653235585815618441_);}
	.st12{fill:#002FDB;}
	.st13{fill:#005CDC;}
	.st14{fill:url(#SVGID_00000083773557015564932810000003131422097420809653_);}
	.st15{fill:url(#SVGID_00000033336258545311952630000002648413335851982222_);}
	.st16{fill:url(#SVGID_00000096770706458369821150000012630901996139401371_);}
	.st17{fill:url(#SVGID_00000112611178641067976140000004238593965440111033_);}
	.st18{fill:url(#SVGID_00000062904839673328713360000015102406544621334696_);}
	.st19{fill:url(#SVGID_00000150822543320619645860000018084891010700725929_);}
	.st20{fill:url(#SVGID_00000170262642765416847900000007862686936121568674_);}
	.st21{fill:url(#SVGID_00000113338839833497976250000000002901423775244733_);}
	.st22{fill:url(#SVGID_00000095337049203919156280000006507683563346954397_);}
	.st23{fill:url(#SVGID_00000093155958093461590460000002329176928242639002_);}
	.st24{fill:url(#SVGID_00000127010257930575883730000004389900705658824839_);}
	.st25{fill:url(#SVGID_00000058547383899905932280000010992972402495947671_);}
	.st26{fill:url(#SVGID_00000130610176168062151980000012855559238375065507_);}
	.st27{fill:url(#SVGID_00000002386172893517406610000008832723877921806506_);}
	.st28{fill:url(#SVGID_00000145762076532825160260000006038563309763398539_);}
	.st29{fill:url(#SVGID_00000164503308015856546790000015169902191245394058_);}
	.st30{fill:url(#SVGID_00000157288783191003348890000014105339167713220234_);}
	.st31{fill:url(#SVGID_00000138545926174631290120000018211024893195232409_);}
	.st32{fill:url(#SVGID_00000105408333009913719630000015022934971986344089_);}
	.st33{fill:url(#SVGID_00000085231865216703924050000007619235617360988037_);}
	.st34{fill:url(#SVGID_00000168092626501723060250000002663575917268203199_);}
	.st35{fill:url(#SVGID_00000028291150902467814680000006107860034124973992_);}
</style>
<g>
	<g>
		<path class="st0" d="M28.1,129.8h-5.7c-2.2,0-4.2-1.1-5.4-3s-1.3-4.2-0.2-6.2l3.7-7.6c1.1-2.2,3.3-3.5,5.7-3.5l0,0h5.7
			c2.2,0,4.2,1.1,5.4,3c1.2,1.9,1.3,4.2,0.2,6.2l-3.7,7.6C32.8,128.4,30.6,129.8,28.1,129.8z"/>
	</g>
	<path class="st0" d="M114.9,120.5L71.5,33.7c-1.1-2.2-3.3-3.5-5.7-3.5c-2.4,0-4.6,1.3-5.7,3.5L28.8,96.5c-1,1.9-0.8,4.3,0.2,6.2
		c1.1,1.8,3,2.9,5.2,3c0.1,0,0.1,0,0.2,0h38.8l0,0c2.2,0,4.2-1.1,5.4-3s1.3-4.2,0.2-6.2l-2.5-5.1c-1.1-2.2-3.3-3.5-5.7-3.5H53
		L66,62.1l32,64c1.1,2.2,3.3,3.5,5.7,3.5h5.7c2.2,0,4.2-1.1,5.4-3C115.8,124.8,115.9,122.5,114.9,120.5z"/>
	<path class="st0" d="M140.1,89.7l14.7-44.5h16.5l14.7,44.5h-13l-2.5-8.6h-14.7l-2.5,8.6H140.1z M167.6,72.1l-4.5-14.7h-0.4
		l-4.5,14.7H167.6z"/>
	<path class="st0" d="M190.4,56.3h11.3v6.4h0.4c1.4-4.2,4.9-6.8,9.5-6.8c4.7,0,8.4,2.7,9.2,6.8h0.4c1.1-4.1,5.2-6.8,10.1-6.8
		c6.4,0,10.7,4.5,10.7,11.3v22.6h-11.9V70.2c0-2.9-1.6-4.7-4.1-4.7c-2.5,0-4,1.8-4,4.7v19.4h-11.5V70.2c0-2.9-1.6-4.7-4.1-4.7
		c-2.5,0-4,1.8-4,4.7v19.4h-11.9V56.3H190.4z"/>
	<path class="st0" d="M248,56.3h11.9v33.4H248V56.3z M248.1,47.4c0-3,2.7-5.4,5.9-5.4c3.3,0,5.9,2.4,5.9,5.4s-2.7,5.4-5.9,5.4
		C250.7,52.8,248.1,50.4,248.1,47.4z"/>
	<path class="st0" d="M278,89.7H266V56.3h11.3v6.4h0.4c1.4-4.2,5.3-6.8,10.3-6.8c7.1,0,11.7,5.3,11.7,12.5v21.3h-11.9V70.9
		c0-3.3-1.8-5.3-4.8-5.3c-3,0-4.8,2.1-4.8,5.3v18.8C278.1,89.7,278,89.7,278,89.7z"/>
	<path class="st0" d="M304.4,73.1c0-10.3,6.4-17.2,17.2-17.2s17.2,7,17.2,17.2s-6.4,17.2-17.2,17.2S304.4,83.3,304.4,73.1z
		 M326.7,72.9c0-5.2-1.9-8.4-4.9-8.4c-3.3,0-5.2,3.1-5.2,8.4c0,5.3,1.9,8.4,5.2,8.4C324.8,81.4,326.7,78.3,326.7,72.9z"/>
	<path class="st0" d="M362.2,58.1h0.4l7.4-12.9h13.5l-13.3,22.3L384,89.8h-13.9l-7.6-13.3h-0.4l-7.6,13.3h-13.7l13.6-22.3
		l-13.3-22.3h13.5L362.2,58.1z"/>
	<path class="st0" d="M154.4,104.4c-0.1-1.9-1.4-3.3-3.7-3.3c-2.9,0-4.6,2.3-4.6,6c0,4,1.7,6,4.5,6c2.2,0,3.5-1.2,3.7-3h5.9
		c-0.2,3.6-3.5,8.1-9.8,8.1c-5.9,0-10.4-3.9-10.4-11.1c0-7.2,4.6-11.1,10.4-11.1c5.4,0,9.4,3,9.8,8.4h-5.8L154.4,104.4L154.4,104.4z
		"/>
	<path class="st0" d="M199.7,96.2h5.9v8.4h7.7v-8.4h5.9v21.6h-5.9v-8.4h-7.7v8.4h-5.9V96.2z"/>
	<path class="st0" d="M258,117.8l7.1-21.6h8l7.1,21.6h-6.3l-1.2-4.1h-7.1l-1.2,4.1H258z M271.2,109.4l-2.2-7.1h-0.1l-2.2,7.1H271.2z
		"/>
	<path class="st0" d="M324.8,117.8h-5.9V96.2h5.9V117.8z"/>
	<path class="st0" d="M382.9,117.8H378l-7.8-11.3H370v11.3h-5.9V96.2h4.9l7.7,11.3h0.1V96.2h5.9v21.6H382.9z"/>
	
		<linearGradient id="SVGID_1_" gradientUnits="userSpaceOnUse" x1="65.8321" y1="1692.7339" x2="115.4026" y2="1692.7339" gradientTransform="matrix(1 0 0 -1 0 1781.0559)">
		<stop  offset="0" style="stop-color:#FF536C"/>
		<stop  offset="1" style="stop-color:#FFA10A"/>
	</linearGradient>
	<path class="st1" d="M103.2,47c-2.7,0-4.9,1.6-6,4.1L79,96.6c1,1.9,0.8,4.1-0.2,6c-0.7,1.2-1.9,2.1-3.1,2.5l-9.8,24.5H78
		c2.7,0,5.1-1.7,6-4.1L115.4,47C115.4,47,103.2,47,103.2,47z"/>
</g>
</svg>
