<?xml version="1.0" encoding="utf-8"?>
<!-- Generator: Adobe Illustrator 26.0.2, SVG Export Plug-In . SVG Version: 6.00 Build 0)  -->
<svg version="1.1" id="圖層_1" xmlns="http://www.w3.org/2000/svg" xmlns:xlink="http://www.w3.org/1999/xlink" x="0px" y="0px"
	 viewBox="0 0 400 160" style="enable-background:new 0 0 400 160;" xml:space="preserve">
<style type="text/css">
	.st0{fill:#FFFFFF;}
	.st1{fill:url(#SVGID_1_);}
	.st2{clip-path:url(#SVGID_00000172429166960964730130000006133583716750726833_);}
	.st3{fill:#040000;}
	.st4{clip-path:url(#SVGID_00000035508853307685493380000000572215812179136427_);}
	.st5{fill:#4D4D4D;}
	.st6{fill:#666666;}
	.st7{fill:#323333;}
	.st8{fill:none;stroke:#040000;stroke-miterlimit:10;}
	.st9{fill:#222222;}
	.st10{fill:url(#SVGID_00000085972201656006995680000015672153727360036539_);}
	.st11{fill:url(#SVGID_00000131338701617957207510000017891647768913088178_);}
	.st12{fill:#002FDB;}
	.st13{fill:#005CDC;}
	.st14{fill:url(#SVGID_00000106124555859406714300000015117724523580721293_);}
	.st15{fill:url(#SVGID_00000060731869771089087190000010369749987590519946_);}
	.st16{fill:url(#SVGID_00000071550536787336834430000002287321223610151571_);}
	.st17{fill:url(#SVGID_00000148644068600112516750000015374420021128260509_);}
	.st18{fill:url(#SVGID_00000083775312532314636560000011525580857848912057_);}
	.st19{fill:url(#SVGID_00000147180564005698498330000002716249073257579185_);}
	.st20{fill:url(#SVGID_00000150789093909377928860000009772468283712307863_);}
	.st21{fill:url(#SVGID_00000151524858428207207490000012671954588550073002_);}
	.st22{fill:url(#SVGID_00000140733620101873882640000002939767910236711064_);}
	.st23{fill:url(#SVGID_00000043420705587594365350000004644723570236271768_);}
	.st24{fill:url(#SVGID_00000074427133150742379980000006824734580403604652_);}
	.st25{fill:url(#SVGID_00000018917418924124819370000006905597533232301230_);}
	.st26{fill:url(#SVGID_00000127757974991886803590000013745162316883436686_);}
	.st27{fill:url(#SVGID_00000129168355951477696180000006647958843584476580_);}
	.st28{fill:url(#SVGID_00000140006962027141240530000004618450439061137561_);}
	.st29{fill:url(#SVGID_00000096740708355165606470000016677040924576664997_);}
	.st30{fill:url(#SVGID_00000051344395166058649460000014488226405681041552_);}
	.st31{fill:url(#SVGID_00000102542671944668386400000004331894819311401404_);}
	.st32{fill:url(#SVGID_00000001631816849232067630000009907942987154435738_);}
	.st33{fill:url(#SVGID_00000112625140080706998510000001823000922642524594_);}
	.st34{fill:url(#SVGID_00000110432577467418903450000006781895198962290074_);}
	.st35{fill:url(#SVGID_00000041268464728863475850000000613509125080604289_);}
</style>
<g>
	<g>
		
			<linearGradient id="SVGID_1_" gradientUnits="userSpaceOnUse" x1="16.0979" y1="469.3525" x2="38.3059" y2="469.3525" gradientTransform="matrix(1 0 0 1 0 -349.7323)">
			<stop  offset="0" style="stop-color:#1B42AD"/>
			<stop  offset="1" style="stop-color:#00276E"/>
		</linearGradient>
		<path class="st1" d="M28.1,129.8h-5.7c-2.2,0-4.2-1.1-5.4-3s-1.3-4.2-0.2-6.2l3.7-7.6c1.1-2.2,3.3-3.5,5.7-3.5l0,0h5.7
			c2.2,0,4.2,1.1,5.4,3c1.2,1.9,1.3,4.2,0.2,6.2l-3.7,7.6C32.8,128.4,30.6,129.8,28.1,129.8z"/>
	</g>
	
		<linearGradient id="SVGID_00000091008749321057159800000016168846299300400268_" gradientUnits="userSpaceOnUse" x1="28.1508" y1="429.672" x2="115.5745" y2="429.672" gradientTransform="matrix(1 0 0 1 0 -349.7323)">
		<stop  offset="0" style="stop-color:#1B42AD"/>
		<stop  offset="1" style="stop-color:#00276E"/>
	</linearGradient>
	<path style="fill:url(#SVGID_00000091008749321057159800000016168846299300400268_);" d="M114.9,120.5L71.5,33.7
		c-1.1-2.2-3.3-3.5-5.7-3.5c-2.4,0-4.6,1.3-5.7,3.5L28.8,96.5c-1,1.9-0.8,4.3,0.2,6.2c1.1,1.8,3,2.9,5.2,3c0.1,0,0.1,0,0.2,0h38.8
		l0,0c2.2,0,4.2-1.1,5.4-3s1.3-4.2,0.2-6.2l-2.5-5.1c-1.1-2.2-3.3-3.5-5.7-3.5H53L66,62.1l32,64c1.1,2.2,3.3,3.5,5.7,3.5h5.7
		c2.2,0,4.2-1.1,5.4-3C115.8,124.8,115.9,122.5,114.9,120.5z"/>
	
		<linearGradient id="SVGID_00000065789453851895435700000015472679052105164986_" gradientUnits="userSpaceOnUse" x1="138.2396" y1="413.9376" x2="390.8399" y2="460.849" gradientTransform="matrix(1 0 0 1 0 -349.7323)">
		<stop  offset="0" style="stop-color:#1B42AD"/>
		<stop  offset="1" style="stop-color:#00276E"/>
	</linearGradient>
	<path style="fill:url(#SVGID_00000065789453851895435700000015472679052105164986_);" d="M140.1,89.7l14.7-44.5h16.5l14.7,44.5h-13
		l-2.5-8.6h-14.7l-2.5,8.6H140.1z M167.6,72.1l-4.5-14.7h-0.4l-4.5,14.7H167.6z"/>
	
		<linearGradient id="SVGID_00000000201766191543946570000001302229777714148765_" gradientUnits="userSpaceOnUse" x1="139.1464" y1="409.0547" x2="391.7466" y2="455.9661" gradientTransform="matrix(1 0 0 1 0 -349.7323)">
		<stop  offset="0" style="stop-color:#1B42AD"/>
		<stop  offset="1" style="stop-color:#00276E"/>
	</linearGradient>
	<path style="fill:url(#SVGID_00000000201766191543946570000001302229777714148765_);" d="M190.4,56.3h11.3v6.4h0.4
		c1.4-4.2,4.9-6.8,9.5-6.8c4.7,0,8.4,2.7,9.2,6.8h0.4c1.1-4.1,5.2-6.8,10.1-6.8c6.4,0,10.7,4.5,10.7,11.3v22.6h-11.9V70.2
		c0-2.9-1.6-4.7-4.1-4.7c-2.5,0-4,1.8-4,4.7v19.4h-11.5V70.2c0-2.9-1.6-4.7-4.1-4.7c-2.5,0-4,1.8-4,4.7v19.4h-11.9V56.3H190.4z"/>
	
		<linearGradient id="SVGID_00000113333647043319104890000012484127837923664778_" gradientUnits="userSpaceOnUse" x1="141.7166" y1="395.2155" x2="394.3169" y2="442.127" gradientTransform="matrix(1 0 0 1 0 -349.7323)">
		<stop  offset="0" style="stop-color:#1B42AD"/>
		<stop  offset="1" style="stop-color:#00276E"/>
	</linearGradient>
	<path style="fill:url(#SVGID_00000113333647043319104890000012484127837923664778_);" d="M248,56.3h11.9v33.4H248V56.3z
		 M248.1,47.4c0-3,2.7-5.4,5.9-5.4c3.3,0,5.9,2.4,5.9,5.4s-2.7,5.4-5.9,5.4C250.7,52.8,248.1,50.4,248.1,47.4z"/>
	
		<linearGradient id="SVGID_00000041289174570829850660000008931612771132704189_" gradientUnits="userSpaceOnUse" x1="141.3401" y1="397.2427" x2="393.9402" y2="444.1541" gradientTransform="matrix(1 0 0 1 0 -349.7323)">
		<stop  offset="0" style="stop-color:#1B42AD"/>
		<stop  offset="1" style="stop-color:#00276E"/>
	</linearGradient>
	<path style="fill:url(#SVGID_00000041289174570829850660000008931612771132704189_);" d="M278,89.7H266V56.3h11.3v6.4h0.4
		c1.4-4.2,5.3-6.8,10.3-6.8c7.1,0,11.7,5.3,11.7,12.5v21.3h-11.9V70.9c0-3.3-1.8-5.3-4.8-5.3c-3,0-4.8,2.1-4.8,5.3v18.8
		C278.1,89.7,278,89.7,278,89.7z"/>
	
		<linearGradient id="SVGID_00000016065037132662216460000012636110088866293685_" gradientUnits="userSpaceOnUse" x1="142.7639" y1="389.5764" x2="395.3642" y2="436.488" gradientTransform="matrix(1 0 0 1 0 -349.7323)">
		<stop  offset="0" style="stop-color:#1B42AD"/>
		<stop  offset="1" style="stop-color:#00276E"/>
	</linearGradient>
	<path style="fill:url(#SVGID_00000016065037132662216460000012636110088866293685_);" d="M304.4,73.1c0-10.3,6.4-17.2,17.2-17.2
		s17.2,7,17.2,17.2s-6.4,17.2-17.2,17.2S304.4,83.3,304.4,73.1z M326.7,72.9c0-5.2-1.9-8.4-4.9-8.4c-3.3,0-5.2,3.1-5.2,8.4
		c0,5.3,1.9,8.4,5.2,8.4C324.8,81.4,326.7,78.3,326.7,72.9z"/>
	
		<linearGradient id="SVGID_00000057149783004877396840000009137510525843988407_" gradientUnits="userSpaceOnUse" x1="145.109" y1="376.949" x2="397.7092" y2="423.8606" gradientTransform="matrix(1 0 0 1 0 -349.7323)">
		<stop  offset="0" style="stop-color:#1B42AD"/>
		<stop  offset="1" style="stop-color:#00276E"/>
	</linearGradient>
	<path style="fill:url(#SVGID_00000057149783004877396840000009137510525843988407_);" d="M362.2,58.1h0.4l7.4-12.9h13.5l-13.3,22.3
		L384,89.8h-13.9l-7.6-13.3h-0.4l-7.6,13.3h-13.7l13.6-22.3l-13.3-22.3h13.5L362.2,58.1z"/>
	
		<linearGradient id="SVGID_00000000939811139978938550000003809938329724784051_" gradientUnits="userSpaceOnUse" x1="137.4894" y1="455.9605" x2="400.2307" y2="475.6886" gradientTransform="matrix(1 0 0 1 0 -349.7323)">
		<stop  offset="0" style="stop-color:#1B42AD"/>
		<stop  offset="1" style="stop-color:#00276E"/>
	</linearGradient>
	<path style="fill:url(#SVGID_00000000939811139978938550000003809938329724784051_);" d="M154.4,104.4c-0.1-1.9-1.4-3.3-3.7-3.3
		c-2.9,0-4.6,2.3-4.6,6c0,4,1.7,6,4.5,6c2.2,0,3.5-1.2,3.7-3h5.9c-0.2,3.6-3.5,8.1-9.8,8.1c-5.9,0-10.4-3.9-10.4-11.1
		c0-7.2,4.6-11.1,10.4-11.1c5.4,0,9.4,3,9.8,8.4h-5.8L154.4,104.4L154.4,104.4z"/>
	
		<linearGradient id="SVGID_00000066482302243341700530000006450101633612147363_" gradientUnits="userSpaceOnUse" x1="137.8341" y1="451.3694" x2="400.5753" y2="471.0974" gradientTransform="matrix(1 0 0 1 0 -349.7323)">
		<stop  offset="0" style="stop-color:#1B42AD"/>
		<stop  offset="1" style="stop-color:#00276E"/>
	</linearGradient>
	<path style="fill:url(#SVGID_00000066482302243341700530000006450101633612147363_);" d="M199.7,96.2h5.9v8.4h7.7v-8.4h5.9v21.6
		h-5.9v-8.4h-7.7v8.4h-5.9V96.2z"/>
	
		<linearGradient id="SVGID_00000042710729858339509540000015456551925392973481_" gradientUnits="userSpaceOnUse" x1="138.148" y1="447.1864" x2="400.8894" y2="466.9145" gradientTransform="matrix(1 0 0 1 0 -349.7323)">
		<stop  offset="0" style="stop-color:#1B42AD"/>
		<stop  offset="1" style="stop-color:#00276E"/>
	</linearGradient>
	<path style="fill:url(#SVGID_00000042710729858339509540000015456551925392973481_);" d="M258,117.8l7.1-21.6h8l7.1,21.6h-6.3
		l-1.2-4.1h-7.1l-1.2,4.1H258z M271.2,109.4l-2.2-7.1h-0.1l-2.2,7.1H271.2z"/>
	
		<linearGradient id="SVGID_00000171680634709473101110000011008678392745853316_" gradientUnits="userSpaceOnUse" x1="138.4639" y1="442.981" x2="401.2052" y2="462.709" gradientTransform="matrix(1 0 0 1 0 -349.7323)">
		<stop  offset="0" style="stop-color:#1B42AD"/>
		<stop  offset="1" style="stop-color:#00276E"/>
	</linearGradient>
	<path style="fill:url(#SVGID_00000171680634709473101110000011008678392745853316_);" d="M324.8,117.8h-5.9V96.2h5.9V117.8z"/>
	
		<linearGradient id="SVGID_00000108285873926875341350000009777016395765136009_" gradientUnits="userSpaceOnUse" x1="138.7532" y1="439.1268" x2="401.4946" y2="458.8548" gradientTransform="matrix(1 0 0 1 0 -349.7323)">
		<stop  offset="0" style="stop-color:#1B42AD"/>
		<stop  offset="1" style="stop-color:#00276E"/>
	</linearGradient>
	<path style="fill:url(#SVGID_00000108285873926875341350000009777016395765136009_);" d="M382.9,117.8H378l-7.8-11.3H370v11.3h-5.9
		V96.2h4.9l7.7,11.3h0.1V96.2h5.9v21.6H382.9z"/>
	
		<linearGradient id="SVGID_00000026151244273688539540000015906040268593389220_" gradientUnits="userSpaceOnUse" x1="65.8321" y1="1692.7339" x2="115.4026" y2="1692.7339" gradientTransform="matrix(1 0 0 -1 0 1781.0559)">
		<stop  offset="0" style="stop-color:#FF536C"/>
		<stop  offset="1" style="stop-color:#FFA10A"/>
	</linearGradient>
	<path style="fill:url(#SVGID_00000026151244273688539540000015906040268593389220_);" d="M103.2,47c-2.7,0-4.9,1.6-6,4.1L79,96.6
		c1,1.9,0.8,4.1-0.2,6c-0.7,1.2-1.9,2.1-3.1,2.5l-9.8,24.5H78c2.7,0,5.1-1.7,6-4.1L115.4,47C115.4,47,103.2,47,103.2,47z"/>
</g>
</svg>
