<?xml version="1.0" encoding="utf-8"?>
<!-- Generator: Adobe Illustrator 26.0.2, SVG Export Plug-In . SVG Version: 6.00 Build 0)  -->
<svg version="1.1" id="圖層_1" xmlns="http://www.w3.org/2000/svg" xmlns:xlink="http://www.w3.org/1999/xlink" x="0px" y="0px"
	 viewBox="0 0 160 160" style="enable-background:new 0 0 160 160;" xml:space="preserve">
<style type="text/css">
	.st0{fill:#FFFFFF;}
	.st1{fill:url(#SVGID_1_);}
	.st2{clip-path:url(#SVGID_00000072241893997486497690000007845202496082711696_);}
	.st3{fill:#040000;}
	.st4{clip-path:url(#SVGID_00000080920155188653351710000012634005818177592721_);}
	.st5{fill:#4D4D4D;}
	.st6{fill:#666666;}
	.st7{fill:#323333;}
	.st8{fill:none;stroke:#040000;stroke-miterlimit:10;}
	.st9{fill:#222222;}
	.st10{fill:url(#SVGID_00000063625578466700630950000005116439562300769974_);}
	.st11{fill:url(#SVGID_00000007420408762826583070000006955236531310638782_);}
	.st12{fill:#002FDB;}
	.st13{fill:#005CDC;}
	.st14{fill:url(#SVGID_00000116935286052045963690000001283522662177517502_);}
	.st15{fill:url(#SVGID_00000173847062166873246860000003307691363630055071_);}
	.st16{fill:url(#SVGID_00000004544267414026425480000015598451740857910147_);}
	.st17{fill:url(#SVGID_00000013172689960648259670000009758253689374468230_);}
	.st18{fill:url(#SVGID_00000037689388845620583300000009409292840759131786_);}
	.st19{fill:url(#SVGID_00000131325105467444325890000016673074016492620192_);}
	.st20{fill:url(#SVGID_00000106149162172644118710000012212339097555655813_);}
	.st21{fill:url(#SVGID_00000080912675161464411630000007164376628131894692_);}
	.st22{fill:url(#SVGID_00000121277000497980720450000003322062013516164515_);}
	.st23{fill:url(#SVGID_00000025405775603611467600000005811193412285132468_);}
	.st24{fill:url(#SVGID_00000016754582624821919810000000074361500167022216_);}
	.st25{fill:url(#SVGID_00000058580576974082818070000014463180546286808968_);}
	.st26{fill:url(#SVGID_00000008848006534574886140000007949275883507157916_);}
	.st27{fill:url(#SVGID_00000138541651215520558350000002408426359424534190_);}
	.st28{fill:url(#SVGID_00000146475352786506596030000013751987998806264505_);}
	.st29{fill:url(#SVGID_00000095323296092466326130000013663371359014091444_);}
	.st30{fill:url(#SVGID_00000174578760403646616050000012492126915707132341_);}
	.st31{fill:url(#SVGID_00000183941126159348323300000007084302489423534490_);}
	.st32{fill:url(#SVGID_00000127757589000088269910000014794044967477908155_);}
	.st33{fill:url(#SVGID_00000148632127253006271790000011083697266674538150_);}
	.st34{fill:url(#SVGID_00000003790053160266567140000006133635511428004018_);}
	.st35{fill:url(#SVGID_00000170980908224601906650000008633593939141509047_);}
</style>
<g>
	<path class="st0" d="M31.5,144h-7.3c-2.8,0-5.4-1.4-7-3.9s-1.7-5.4-0.3-7.9l4.8-9.8c1.4-2.8,4.2-4.5,7.3-4.5l0,0h7.3
		c2.8,0,5.4,1.4,7,3.9s1.7,5.4,0.3,7.9l-4.8,9.8C37.6,142.2,34.8,144,31.5,144z"/>
</g>
<path class="st0" d="M143.2,132L87.3,20.5c-1.4-2.8-4.2-4.5-7.3-4.5s-5.9,1.7-7.3,4.5l-40.3,80.6c-1.2,2.5-1.1,5.6,0.3,7.9
	c1.4,2.3,3.9,3.7,6.7,3.9c0.2,0,0.2,0,0.3,0h49.9l0,0c2.8,0,5.4-1.4,7-3.9s1.7-5.4,0.3-7.9l-3.3-6.5c-1.4-2.8-4.2-4.5-7.3-4.5H63.6
	L80.2,57l41.1,82.3c1.4,2.8,4.2,4.5,7.3,4.5h7.3c2.8,0,5.4-1.4,7-3.9C144.2,137.6,144.4,134.7,143.2,132z"/>
<linearGradient id="SVGID_1_" gradientUnits="userSpaceOnUse" x1="80.0577" y1="1690.3582" x2="143.7791" y2="1690.3582" gradientTransform="matrix(1 0 0 -1 0 1781.0559)">
	<stop  offset="0" style="stop-color:#FF536C"/>
	<stop  offset="1" style="stop-color:#FFA10A"/>
</linearGradient>
<path class="st1" d="M128.1,37.6c-3.4,0-6.4,2-7.8,5.3L97,101.3c1.2,2.5,1.1,5.3-0.3,7.8c-0.9,1.6-2.5,2.6-4,3.3l-12.6,31.5h15.7
	c3.4,0,6.5-2.2,7.8-5.3l40.3-100.9C143.8,37.6,128.1,37.6,128.1,37.6z"/>
</svg>
