<?xml version="1.0" encoding="utf-8"?>
<!-- Generator: Adobe Illustrator 26.0.2, SVG Export Plug-In . SVG Version: 6.00 Build 0)  -->
<svg version="1.1" id="圖層_1" xmlns="http://www.w3.org/2000/svg" xmlns:xlink="http://www.w3.org/1999/xlink" x="0px" y="0px"
	 viewBox="0 0 160 160" style="enable-background:new 0 0 160 160;" xml:space="preserve">
<style type="text/css">
	.st0{fill:#FFFFFF;}
	.st1{fill:url(#SVGID_1_);}
	.st2{clip-path:url(#SVGID_00000088841139785756572950000009304944541466650807_);}
	.st3{fill:#040000;}
	.st4{clip-path:url(#SVGID_00000175307227719085444090000018144630152193959072_);}
	.st5{fill:#4D4D4D;}
	.st6{fill:#666666;}
	.st7{fill:#323333;}
	.st8{fill:none;stroke:#040000;stroke-miterlimit:10;}
	.st9{fill:#222222;}
	.st10{fill:url(#SVGID_00000080196371815592352640000002966310528106132379_);}
	.st11{fill:url(#SVGID_00000163057550522710469520000001089591035329342648_);}
	.st12{fill:#002FDB;}
	.st13{fill:#005CDC;}
	.st14{fill:url(#SVGID_00000137830705611175681270000006517981589238185373_);}
	.st15{fill:url(#SVGID_00000040553542495418684100000010820469452290840450_);}
	.st16{fill:url(#SVGID_00000054959244092468687400000006835367452751088560_);}
	.st17{fill:url(#SVGID_00000031928488090487975910000011729189277673106109_);}
	.st18{fill:url(#SVGID_00000140003769440455678580000008637524585749712022_);}
	.st19{fill:url(#SVGID_00000160149222953670367810000007353684342922683016_);}
	.st20{fill:url(#SVGID_00000166656465845732080750000014084228778440847488_);}
	.st21{fill:url(#SVGID_00000085216198185457204390000000449862089541498503_);}
	.st22{fill:url(#SVGID_00000122709156009129528980000012784088401254963628_);}
	.st23{fill:url(#SVGID_00000123415551122184064340000009704050853850239381_);}
	.st24{fill:url(#SVGID_00000090984875797819282470000017757335338714838189_);}
	.st25{fill:url(#SVGID_00000033368754465098849820000009709403440726915507_);}
	.st26{fill:url(#SVGID_00000090275991870940360280000000487159709798921131_);}
	.st27{fill:url(#SVGID_00000047018301300479190860000002089932052662344105_);}
	.st28{fill:url(#SVGID_00000069380647770150685920000007617644160677268907_);}
	.st29{fill:url(#SVGID_00000179637276893750074960000009913032444236217778_);}
	.st30{fill:url(#SVGID_00000002384412269796833550000013993354721698142087_);}
	.st31{fill:url(#SVGID_00000117653891215320050810000017711000696281047963_);}
	.st32{fill:url(#SVGID_00000052792898570079834040000014885155803394361010_);}
	.st33{fill:url(#SVGID_00000074416281453382367940000010182186599250433965_);}
	.st34{fill:url(#SVGID_00000040559629968891493420000009522362329307924115_);}
	.st35{fill:url(#SVGID_00000080169521168178108750000002777209224897505680_);}
</style>
<g>
	
		<linearGradient id="SVGID_1_" gradientUnits="userSpaceOnUse" x1="16.1258" y1="480.6629" x2="44.6736" y2="480.6629" gradientTransform="matrix(1 0 0 1 0 -349.7323)">
		<stop  offset="0" style="stop-color:#1B42AD"/>
		<stop  offset="1" style="stop-color:#00276E"/>
	</linearGradient>
	<path class="st1" d="M31.5,144h-7.3c-2.8,0-5.4-1.4-7-3.9s-1.7-5.4-0.3-7.9l4.8-9.8c1.4-2.8,4.2-4.5,7.3-4.5l0,0h7.3
		c2.8,0,5.4,1.4,7,3.9s1.7,5.4,0.3,7.9l-4.8,9.8C37.6,142.2,34.8,144,31.5,144z"/>
</g>
<linearGradient id="SVGID_00000109031555371904661100000005076301637308815504_" gradientUnits="userSpaceOnUse" x1="31.6195" y1="429.6548" x2="144" y2="429.6548" gradientTransform="matrix(1 0 0 1 0 -349.7323)">
	<stop  offset="0" style="stop-color:#1B42AD"/>
	<stop  offset="1" style="stop-color:#00276E"/>
</linearGradient>
<path style="fill:url(#SVGID_00000109031555371904661100000005076301637308815504_);" d="M143.2,132L87.3,20.5
	c-1.4-2.8-4.2-4.5-7.3-4.5s-5.9,1.7-7.3,4.5l-40.3,80.6c-1.2,2.5-1.1,5.6,0.3,7.9c1.4,2.3,3.9,3.7,6.7,3.9c0.2,0,0.2,0,0.3,0h49.9
	l0,0c2.8,0,5.4-1.4,7-3.9s1.7-5.4,0.3-7.9l-3.3-6.5c-1.4-2.8-4.2-4.5-7.3-4.5H63.6L80.2,57l41.1,82.3c1.4,2.8,4.2,4.5,7.3,4.5h7.3
	c2.8,0,5.4-1.4,7-3.9C144.2,137.6,144.4,134.7,143.2,132z"/>
<linearGradient id="SVGID_00000080167320711723112850000013309108899390716057_" gradientUnits="userSpaceOnUse" x1="80.0577" y1="1690.3582" x2="143.7791" y2="1690.3582" gradientTransform="matrix(1 0 0 -1 0 1781.0559)">
	<stop  offset="0" style="stop-color:#FF536C"/>
	<stop  offset="1" style="stop-color:#FFA10A"/>
</linearGradient>
<path style="fill:url(#SVGID_00000080167320711723112850000013309108899390716057_);" d="M128.1,37.6c-3.4,0-6.4,2-7.8,5.3L97,101.3
	c1.2,2.5,1.1,5.3-0.3,7.8c-0.9,1.6-2.5,2.6-4,3.3l-12.6,31.5h15.7c3.4,0,6.5-2.2,7.8-5.3l40.3-100.9
	C143.8,37.6,128.1,37.6,128.1,37.6z"/>
</svg>
